<?xml version="1.0" standalone="no"?>
<!DOCTYPE svg PUBLIC "-//W3C//DTD SVG 20010904//EN"
 "http://www.w3.org/TR/2001/REC-SVG-20010904/DTD/svg10.dtd">
<svg version="1.0" xmlns="http://www.w3.org/2000/svg"
 width="500.000000pt" height="500.000000pt" viewBox="0 0 500.000000 500.000000"
 preserveAspectRatio="xMidYMid meet">

<g transform="translate(0.000000,500.000000) scale(0.100000,-0.100000)"
fill="#000000" stroke="none">
<path d="M2010 3927 l0 -382 595 -595 595 -595 0 -617 c0 -369 4 -618 9 -618
42 0 41 -22 41 624 l0 611 -595 595 -595 595 0 382 0 383 -25 0 -25 0 0 -383z"/>
<path d="M3060 3579 l0 -320 23 3 22 3 3 318 2 317 -25 0 -25 0 0 -321z"/>
<path d="M4040 3580 l0 -320 25 0 25 0 0 320 0 320 -25 0 -25 0 0 -320z"/>
<path d="M1332 2737 l-512 -512 1 -625 c1 -344 3 -616 6 -605 2 11 11 37 19
58 12 31 14 134 14 600 l0 562 506 506 c405 405 503 508 492 517 -11 9 -117
-92 -526 -501z"/>
<path d="M4040 1840 l0 -320 25 0 25 0 0 320 0 320 -25 0 -25 0 0 -320z"/>
<path d="M2430 1740 c0 -9 31 -30 44 -30 3 0 6 9 6 20 0 15 -7 20 -25 20 -14
0 -25 -4 -25 -10z"/>
</g>
</svg>
