<?xml version="1.0" encoding="UTF-8"?>
<svg version="1.1" viewBox="0 0 2000 2000" width="1280" height="1280" xmlns="http://www.w3.org/2000/svg">
<path transform="translate(344,933)" d="m0 0h454l1 1v80h880l2 1v115h8l21 5 18 8 12 8 11 9 9 9 10 14 8 15 6 18 2 11v32l-3 16-6 16-8 15-10 13-13 13-15 10-17 8-21 6-11 2-1 109-12 4-64 16-13 4-7 11-16 24-15 22-9 13v7l10 64v8l-9 2-85 6-6 1-10 28-12 31-4 3-25 7-36 10-8 4-10 9-11 9-10 9-11 9-15 13h-2l-2 5-18 52-4 9-3 2h-929l-2-1v-108h-99l-12-3-8-6-6-7-4-11v-9l4-12 14-24 16-28 15-26 12-21 10-17 16-28 30-52 10-18 1-3v-493l1-48z" fill="#D2F1FD"/>
<path transform="translate(344,933)" d="m0 0h454l1 1v80h880l2 1v115h8l21 5 18 8 12 8 11 9 9 9 10 14 8 15 6 18 2 11v32l-3 16-6 16-8 15-10 13-13 13-15 10-17 8-21 6-11 2-1 109-12 4-64 16-13 4-7 11-16 24-15 22-9 13v7l10 64v8l-9 2-85 6-6 1-10 28-12 31-4 3-25 7-36 10-8 4-10 9-11 9-10 9-11 9-15 13h-2l-2 5-18 52-4 9-3 2h-929l-2-1v-108h-99l-12-3-8-6-6-7-4-11v-9l4-12 14-24 16-28 15-26 12-21 10-17 16-28 30-52 10-18 1-3v-493l1-48zm38 118-2 1-1 7v388l1 3 12 4 8 7 7 10 14 25 12 21 15 26 12 21 75 130 3 11-1 11-5 10-7 7-10 4-134 1-2 7v33l1 34h901l5-12 7-19 7-8 11-9 9-8 11-9 12-11 10-8 9-6 24-7 39-11 3-3 15-39 8-20 4-1 88-6 5-2-3-22-7-46 1-7 7-11 7-10 16-24 8-11 10-15 1-3 60-15v-114l-8-3-14-5-18-10-10-8h-2l-2-4h-2l-2-4-9-11-6-10-6-12-6-20-2-14v-15l2-19 5-17 8-16 9-14 11-12 14-11 16-9 14-5 8-3 1-9-1-72-2-1z" fill="#030509"/>
<path transform="translate(1030,116)" d="m0 0h36l26 3 25 6 18 6 25 12 15 10 9 7 10 9 8 8 10 13 8 14 9 24 7 24 11 42 8 36 5 31 3 28 2 47 1 45 3 68 2 40 1 32v49l-2 19-5 20-7 19-11 21-8 12-11 14-14 15-14 12-14 10-13 8-21 11-25 9-24 6-16 2h-21l-34-3-29-4-29-5-17-4-21-7-16-7-14-9-10-9-11-12-10-16-11-23-8-24-7-28-7-37-4-27-3-31-2-37v-153l1-38 3-52 5-52 4-26 4-15 6-15 6-11 8-11 13-15 11-10 15-11 15-9 15-8 23-9 24-7 25-5zm6 128-22 3-19 6-11 6-10 8-4 6-1 9v12l-3 30-3 43-1 27-1 54v113l2 32 4 35 7 39 6 27 4 10 4 2 78 13 14 1 15-4 14-6 12-8 9-8 8-11 4-11 2-13-1-55-5-104-2-76-2-33-4-30-7-33-6-26-5-24-4-12-6-8-7-6-11-5-15-3z"/>
<path transform="translate(1683,148)" d="m0 0h15l14 3 14 7 10 8 8 10 7 14 3 10 1 7v12l-3 57-2 76v209l1 136v30l-2 14-5 13-6 10-9 10-10 7-8 4-9 3-10 2h-12l-17-4-13-7-12-11-8-11-5-11-3-14-1-115v-52h-235l-22-2-21-5-16-7-14-10-9-9-8-13-5-14-1-5v-26l7-21 11-23 8-18 12-22 10-18 16-27 12-20 10-16 9-15 15-26 12-22 14-27 16-32 8-11 7-7 11-7 9-4 15-3h10l16 3 16 8 9 7 7 8 7 12 4 13 1 4v19l-5 16-12 25-14 28-12 22-10 18-14 24-17 28-8 13-18 30-1 3h169v-53l1-60 2-61 3-58 4-15 6-12 9-11 7-6 12-7 12-4z"/>
<path transform="translate(642,155)" d="m0 0h23l16 5 11 7 10 9 9 13 5 13 2 12v11l-3 54-2 69-1 78v38l1 144v135l-3 14-7 14-10 12-13 9-16 6-5 1h-21l-14-4-11-6-11-9-9-12-6-14-2-10-1-88v-82h-248l-23-4-16-6-10-5-12-9-8-8-7-11-5-11-3-15v-15l4-18 7-16 14-30 8-16 9-17 14-24 10-17 14-23 11-18 17-29 11-19 8-16 14-27 11-21 9-10 7-6 8-5 14-5 6-1h17l14 3 12 6 10 8 7 7 8 14 4 11 1 5v19l-4 15-12 25-10 20-24 44-10 17-34 56-14 24 169-1 2-121 2-58 3-55 4-16 6-12 11-12 7-6 16-8z"/>
<path transform="translate(350,940)" d="m0 0h441l1 1v79l882 1v108l-18 2-1-1-1-84-1280-1 1 352v52l-9 3-11 7-4 4h-2v-522z" fill="#588AF2"/>
<path transform="translate(1716,1554)" d="m0 0 4 1-1 19-16 138-11 93-9 77-1 5-5 1-156-18-179-21-13-2-1-5 8-17 5-6 25-14 45-25 12-7 16-4 46-8 4-4 14-28 11-23 4-2 44 12 28 8 12 3-2-91 10-18 9-16 7-14 9-16 3-5 21-4z" fill="#D0EFFD"/>
<path transform="translate(372,1456)" d="m0 0h9l8 3 8 7 6 10 6 11 13 23 14 24 12 21 15 26 10 17 15 26 13 23 12 21 15 26 4 9v10l-6 12-8 7-14 2h-75l-187-1-9-3-6-5-5-9-1-10 3-10 13-23 14-24 13-23 14-24 12-21 15-26 12-21 14-24 24-42 5-6z" fill="#F3B427"/>
<path transform="translate(1661,1136)" d="m0 0h17l19 3 18 6 15 8 11 8 10 9 11 14 7 12 6 15 3 12 2 19-1 17-4 17-7 16-8 14-11 13-10 9-14 9-15 7-17 5-11 2h-20l-16-3-21-8-16-10-11-9-7-8-10-15-7-14-6-19-2-9v-24l4-18 6-16 8-15 8-10 12-12 13-9 16-8 11-4z" fill="#F95514"/>
<path transform="translate(1716,1554)" d="m0 0 4 1-1 19-16 138-11 93-9 77-1 5-5 1-156-18-179-21-13-2-1-5 8-17 5-6 25-14 45-25 12-7 16-4 46-8 4-4 14-28 11-23 4-2 44 12 28 8 12 3-2-91 10-18 9-16 7-14 9-16 3-5 21-4zm-37 13-36 6-4 5-17 32-10 18-6 12v9l1 7 1 80-30-8-47-13-7-2h-5l-5 8-22 45-12 3-45 8-11 4-28 15-21 12-9 5 1 3 256 30 25 3 5-1 3-21 17-148 11-96 1-16z" fill="#588AF2"/>
<path transform="translate(351,1740)" d="m0 0h21l1 1 1 76 3 2 900 1 1 4-6 17-1 1-159 1h-467l-294-1-1-1v-100z" fill="#588AF2"/>
<path transform="translate(1716,1554)" d="m0 0 4 1-1 19-16 138-11 93-9 77-1 5-5 1-156-18-179-21-13-2-1-5 8-17 5-6 25-14 45-25 12-7 16-4 46-8 4-4 14-28 11-23 4-2 44 12 28 8 12 3-2-91 10-18 9-16 7-14 9-16 3-5 21-4zm-8 8-15 3-1 2-18 154-15 129-1 5-16-1-283-33h-8l-8 7-6 11 1 3 182 21 154 18 2-1 6-48 11-95 18-154 1-11v-10zm-29 5-36 6-4 5-17 32-10 18-6 12v9l1 7 1 80-30-8-47-13-7-2h-5l-5 8-22 45-12 3-45 8-11 4-28 15-21 12-9 5 1 3 256 30 25 3 5-1 3-21 17-148 11-96 1-16z" fill="#010205"/>
<path transform="translate(1713,1182)" d="m0 0 10 2 7 6 3 6 1 10-3 7-6 8-19 19h-2l-1 5 25 25 5 9 1 2v8l-3 7-7 7-6 2h-9l-7-3-28-28-4 2-22 22-9 6-3 1h-9l-7-3-5-5-4-8v-8l4-8 22-22 3-4h2v-5l-25-25-5-8-1-3v-8l4-8 7-6 4-1h11l8 4 27 27 3 1 2-4 25-25 6-3z"/>
<path transform="translate(1008,1477)" d="m0 0h8l5 1h11l23 4 20 6 20 9 16 9 14 10 3 2-1 5-10 11-11 14-3 4-5-2-10-7-16-9-15-6-14-4-19-3h-24l-19 3-17 5-21 10-16 10-2 2-5-1-8-10-11-13-5-7 5-5 10-7 15-9 19-9 17-6 24-5 6-1z"/>
<path transform="translate(1146,1313)" d="m0 0h200v19l-1 24h-199z"/>
<path transform="translate(696,1313)" d="m0 0h199v42l-1 1h-198z"/>
<path transform="translate(372,1518)" d="m0 0h9l7 4 5 7 1 4v86l-3 8-6 5-5 2h-7l-7-3-5-5-2-7v-88l3-6 7-6z"/>
<path transform="translate(1656,1356)" d="m0 0 17 1 1 1v104l-13 4h-6v-109z" fill="#588AF2"/>
<path transform="translate(371,1659)" d="m0 0h11l6 4 5 6 1 9-5 10-5 4-3 1h-9l-6-3-6-7-1-3v-8l3-6 7-6z"/>
<path transform="translate(727,955)" d="m0 0 5 1 8 7 7 7h4v-2l6-5 5-5 4-3 3 1-1 7-12 12 1 5 11 11 1 6-4 1-10-9-6-5-4 2-3 3h-2l-2 4-5 4h-5l1-7 8-7 4-4-1-4-7-8-6-7z"/>
<path transform="translate(394,964)" d="m0 0h13l17 1-1 8h-29l-1-1v-7z"/>
<path transform="translate(463,965)" d="m0 0h31v6l-2 2h-28l-1-1z"/>
<path transform="translate(437,991)" d="m0 0h10l10 4 2 2v4h-7l-6-2h-8l-6 2h-6l-1-4 3-3z"/>
</svg>
