<?xml version="1.0" encoding="UTF-8"?>
<svg version="1.1" viewBox="0 0 1000 1000" width="1280" height="1280" xmlns="http://www.w3.org/2000/svg">
<path transform="translate(172,467)" d="m0 0h227l1 1v39h440l1 1v57l9 1 11 4 10 6 9 8 9 14 4 13v22l-4 12-6 11-12 12-10 6-12 4-8 1v54l-7 3-36 9-4 4-16 24-5 7 1 11 4 28-1 2-49 4-11 29-7 3-28 8-11 9-10 9-11 9-11 32-2 1h-464l-2-2v-53h-52l-6-3-5-6-1-3v-7l8-16 14-24 16-28 14-24 11-19 1-272z" fill="#97A8ED"/>
<path transform="translate(172,467)" d="m0 0h227l1 1v39h440l1 1v57l9 1 11 4 10 6 9 8 9 14 4 13v22l-4 12-6 11-12 12-10 6-12 4-8 1v54l-7 3-36 9-4 4-16 24-5 7 1 11 4 28-1 2-49 4-11 29-7 3-28 8-11 9-10 9-11 9-11 32-2 1h-464l-2-2v-53h-52l-6-3-5-6-1-3v-7l8-16 14-24 16-28 14-24 11-19 1-272zm18 59v199l9 4 8 13 16 28 45 78v11l-3 5-5 4-6 1-64 1v36h451l6-16 13-12 11-9 8-7 34-10 4-9 8-21 1-1 41-3 7-1-3-23-2-14 21-31 5-7 28-7 1-1v-56l-12-5-10-6-7-6-7-10-5-12-2-8v-17l3-12 6-12 9-10 8-6 13-6 4-1v-41z" fill="#09090C"/>
<path transform="translate(490,114)" d="m0 0h24l18 3 16 6 12 6 10 8 7 8 6 11 2 8 2 13 8 28 5 24 2 17v28l-3 29-5 24-7 21-11 23-8 11-9 10-7 7-14 9-14 6-14 3h-27l-16-4-12-5-11-7-12-11-7-8-9-14-8-17-6-19-4-19-2-19v-34l2-21 4-23 6-22 6-16 8-16 8-12 11-13 13-10 15-8 15-4zm8 72-4 5-5 11-5 18-4 24-2 22v25l3 24 5 18 5 9 2 2h6l7-6 5-10 4-14 3-15 2-21v-31l-2-24-4-19-4-10-6-7z" fill="#F8EEE5"/>
<path transform="translate(717,111)" d="m0 0h22l13 3 10 6 6 7 4 12 1 9 1 125 12 1 11 4 8 6 6 12 1 5v18l-4 11-4 6-10 7-14 4h-7l1 5v43l-4 10-6 8-10 7-11 4-16 1-14-3-10-6-7-8-4-11-2-12v-27l1-12h-48l-12-3-12-6-8-8-5-10-2-9v-13l4-15 11-28 14-29 20-40 13-23 11-18 10-14 9-10 5-4 10-4z" fill="#F8EEE5"/>
<path transform="translate(295,111)" d="m0 0h23l15 4 8 6 5 6 4 11 1 6 1 94v35l12 1 10 3 8 6 6 9 2 7 1 13-2 12-5 10-8 7-13 5-11 1 1 20v24l-3 11-6 9-8 7-11 5-12 2h-8l-14-3-10-6-7-9-4-11-1-5v-45h-48l-15-4-10-6-8-9-5-13-1-6v-9l4-16 8-21 15-33 17-34 12-22 11-19 9-14 12-16 9-8 11-4z" fill="#F8EEE5"/>
<path transform="translate(175,470)" d="m0 0h221v40h441v55h-10v-42h-640v202l-7 3-5 3z" fill="#9290C3"/>
<path transform="translate(857,777)" d="m0 0 3 1-1 17-17 146-1 3-15-1-154-18-7-1-1-4 5-9 9-6 24-13 10-6 27-5h5l2-6 11-22 3-1 39 11 2 1-1-28v-18l18-34 1-1z" fill="#97A8EC"/>
<path transform="translate(295,111)" d="m0 0h23l15 4 8 6 5 6 4 11 1 6 1 94v35l12 1 10 3 8 6 6 9 2 7 1 13-2 12-5 10-8 7-13 5-11 1 1 20v24l-3 11-6 9-8 7-11 5-12 2h-8l-14-3-10-6-7-9-4-11-1-5v-45h-48l-15-4-10-6-8-9-5-13-1-6v-9l4-16 8-21 15-33 17-34 12-22 11-19 9-14 12-16 9-8 11-4zm7 15-12 2-6 4-8 9-11 17-10 17-10 18-15 29-16 33-10 24-6 18v12l4 11 8 7 9 3 7 1h30l29-1-1 29v26l2 11 4 6 6 5 9 2h11l11-4 6-5 4-8v-31l-1-29h16l10-2 7-4 4-5 2-6v-9l-2-9-4-5-8-3h-25v-72l-1-74-3-9-6-5-7-2-7-1z" fill="#020202"/>
<path transform="translate(717,111)" d="m0 0h22l13 3 10 6 6 7 4 12 1 9 1 125 12 1 11 4 8 6 6 12 1 5v18l-4 11-4 6-10 7-14 4h-7l1 5v43l-4 10-6 8-10 7-11 4-16 1-14-3-10-6-7-8-4-11-2-12v-27l1-12h-48l-12-3-12-6-8-8-5-10-2-9v-13l4-15 11-28 14-29 20-40 13-23 11-18 10-14 9-10 5-4 10-4zm7 15-12 2-7 4-10 13-12 19-13 23-15 28-17 35-12 28-6 18v15l4 9 8 7 9 3 6 1h31l28-1v59l3 10 4 5 8 4 6 1h10l10-3 8-7 3-5 1-4v-22l-2-36h17l12-3 6-4 4-7 1-8-2-12-6-7-6-2h-25v-43l-1-101-2-8-4-6-6-3-11-2z" fill="#020202"/>
<path transform="translate(186,728)" d="m0 0 8 1 5 5 14 24 30 52 16 28 6 10 1 3v7l-4 6-3 2-5 1h-132l-7-3-4-5v-9l6-11 14-25 10-17 30-52 8-13 4-3z" fill="#F4B824"/>
<path transform="translate(490,114)" d="m0 0h24l18 3 16 6 12 6 10 8 7 8 6 11 2 8 2 13 8 28 5 24 2 17v28l-3 29-5 24-7 21-11 23-8 11-9 10-7 7-14 9-14 6-14 3h-27l-16-4-12-5-11-7-12-11-7-8-9-14-8-17-6-19-4-19-2-19v-34l2-21 4-23 6-22 6-16 8-16 8-12 11-13 13-10 15-8 15-4zm6 15-13 2-13 5-10 6-10 9-9 10-9 15-7 16-6 19-5 25-2 16-1 25 1 21 3 21 5 19 8 20 10 16 8 9 12 9 10 5 14 4 7 1h12l14-2 14-5 11-7 10-9 9-11 8-14 7-16 6-20 4-21 2-18v-36l-3-21-6-24-6-20-3-17-6-10-8-7-10-6-14-5-14-3-11-1z" fill="#010102"/>
<path transform="translate(831,568)" d="m0 0h11l13 3 10 5 10 8 7 9 5 10 3 12v14l-3 12-6 11-9 10-9 7-13 5-4 1h-19l-12-4-9-5-10-9-7-10-5-14-1-5v-12l3-12 7-14 12-12 14-7z" fill="#F95614"/>
<path transform="translate(857,777)" d="m0 0 3 1-1 17-17 146-1 3-15-1-154-18-7-1-1-4 5-9 9-6 24-13 10-6 27-5h5l2-6 11-22 3-1 39 11 2 1-1-28v-18l18-34 1-1zm-16 6-19 3-6 9-12 23v49l-7-1-36-10h-2l-13 27-32 6-23 13-8 5v1l49 6 86 10h9l16-138-1-3z" fill="#9290C3"/>
<path transform="translate(496,170)" d="m0 0 10 1 8 4 8 9 6 13 4 16 2 13 1 12v49l-3 22-4 17-5 13-6 10-9 8-8 3h-10l-6-3-7-7-6-12-5-18-3-21-1-29 2-25 5-30 5-18 8-16 7-8zm2 16-4 5-5 11-5 18-4 24-2 22v25l3 24 5 18 5 9 2 2h6l7-6 5-10 4-14 3-15 2-21v-31l-2-24-4-19-4-10-6-7z" fill="#010102"/>
<path transform="translate(175,870)" d="m0 0h12v40h452l-2 9-1 2h-461z" fill="#9290C3"/>
<path transform="translate(857,777)" d="m0 0 3 1-1 17-17 146-1 3-15-1-154-18-7-1-1-4 5-9 9-6 24-13 10-6 27-5h5l2-6 11-22 3-1 39 11 2 1-1-28v-18l18-34 1-1zm-4 4-7 2-12 102-5 42-15-1-129-15h-10l-5 5-1 5 49 6 112 13h8l4-30 14-120v-9zm-12 2-19 3-6 9-12 23v49l-7-1-36-10h-2l-13 27-32 6-23 13-8 5v1l49 6 86 10h9l16-138-1-3z" fill="#060608"/>
<path transform="translate(815,591)" d="m0 0 7 2 13 13 4-1 13-13 6-1 5 2 4 5v7l-7 8-8 8 2 4 12 12 1 2v7l-5 6-6 1-5-2-13-13-4 1-12 12-7 2-7-3-2-4v-7l7-8 8-8-2-4-12-12-1-2v-7l2-4z"/>
<path transform="translate(495,739)" d="m0 0h23l17 4 16 7 12 8v4l-9 11-4 3-11-7-12-5-13-3h-15l-14 3-14 6-9 6-5-4-9-11 1-3 18-11 17-6z"/>
<path transform="translate(573,657)" d="m0 0h100v21h-100z"/>
<path transform="translate(348,657)" d="m0 0h100v21h-100z"/>
<path transform="translate(706,221)" d="m0 0h1v21l-1 46-1 1h-32l2-6z"/>
<path transform="translate(284,222)" d="m0 0h1v36l-1 31h-33l2-6 11-22 10-19z"/>
<path transform="translate(185,759)" d="m0 0h6l5 4 1 2v46l-4 5-2 1h-6l-5-5v-48z"/>
<path transform="translate(828,678)" d="m0 0 9 1v52l-5 2h-5v-54z" fill="#9290C3"/>
<path transform="translate(188,829)" d="m0 0 7 3 2 4-1 7-3 3-7 1-6-5v-8l4-4z"/>
<path transform="translate(364,478)" d="m0 0 4 1 7 6 7-7 3 1-2 4-5 6 7 7-1 3-4-2-6-5-7 7-3-1 2-4 5-6-8-8z"/>
<path transform="translate(216,496)" d="m0 0h10l4 2-1 3-11-1-5 1v-3z"/>
<path transform="translate(232,483)" d="m0 0h15v3h-15z"/>
<path transform="translate(197,483)" d="m0 0h15v3h-15z"/>
</svg>
