<?xml version="1.0" encoding="UTF-8"?>
<!DOCTYPE svg PUBLIC "-//W3C//DTD SVG 1.1//EN" "http://www.w3.org/Graphics/SVG/1.1/DTD/svg11.dtd">
<svg xmlns="http://www.w3.org/2000/svg" version="1.1" width="1920px" height="1080px" style="shape-rendering:geometricPrecision; text-rendering:geometricPrecision; image-rendering:optimizeQuality; fill-rule:evenodd; clip-rule:evenodd" xmlns:xlink="http://www.w3.org/1999/xlink">
<g><path style="opacity:0.988" fill="#373850" d="M 1550.5,195.5 C 1535.24,194.227 1529.91,186.227 1534.5,171.5C 1531.74,167.234 1530.91,162.567 1532,157.5C 1536.14,151.767 1537.8,145.434 1537,138.5C 1531.47,132.086 1525.64,131.919 1519.5,138C 1509.85,141.193 1504.52,137.693 1503.5,127.5C 1490.66,126.989 1484.99,120.322 1486.5,107.5C 1478.18,107.338 1471.51,104.005 1466.5,97.5C 1461.88,100.73 1458.71,105.064 1457,110.5C 1456.94,118.533 1457.28,126.533 1458,134.5C 1453.49,141.011 1448.99,147.511 1444.5,154C 1449.2,165.89 1454.03,177.724 1459,189.5C 1459.5,191.81 1459.66,194.143 1459.5,196.5C 1454.69,199.089 1449.69,201.589 1444.5,204C 1439.05,206.143 1433.72,205.976 1428.5,203.5C 1425.2,200.924 1422.87,197.591 1421.5,193.5C 1412.71,187.584 1408.37,179.251 1408.5,168.5C 1409.14,155.226 1414.97,144.892 1426,137.5C 1425.08,133.771 1424.24,129.938 1423.5,126C 1423.93,121.319 1425.59,117.152 1428.5,113.5C 1432.24,112.088 1434.58,109.421 1435.5,105.5C 1429.23,91.7337 1431.9,79.9004 1443.5,70C 1454.11,61.6839 1466.11,58.0172 1479.5,59C 1491.92,41.6096 1507.92,37.6096 1527.5,47C 1530.36,49.3603 1533.36,51.527 1536.5,53.5C 1543.31,51.646 1548.81,53.646 1553,59.5C 1555.72,65.0053 1558.06,70.672 1560,76.5C 1565.67,81.5 1571.33,86.5 1577,91.5C 1578.59,93.6705 1579.92,96.0038 1581,98.5C 1582.14,106.805 1583.14,115.138 1584,123.5C 1587.39,131.951 1591.06,140.284 1595,148.5C 1600.25,166.508 1594.08,178.341 1576.5,184C 1573.49,184.128 1570.49,184.128 1567.5,184C 1564.55,186.946 1561.55,189.946 1558.5,193C 1556.09,194.707 1553.42,195.54 1550.5,195.5 Z"/></g>
<g><path style="opacity:1" fill="#888aa4" d="M 254.5,-0.5 C 417.833,-0.5 581.167,-0.5 744.5,-0.5C 744.5,268.5 744.5,537.5 744.5,806.5C 733.012,807.495 721.345,807.828 709.5,807.5C 709.895,797.636 709.895,787.636 709.5,777.5C 711.355,764.802 711.355,752.302 709.5,740C 709.826,662.976 710.16,586.142 710.5,509.5C 716.319,508.672 722.319,508.172 728.5,508C 733.356,504.011 733.689,499.678 729.5,495C 723.175,494.5 716.842,494.334 710.5,494.5C 710.876,448.421 710.876,402.087 710.5,355.5C 709.99,352.593 709.323,349.759 708.5,347C 709.516,346.481 710.182,345.647 710.5,344.5C 710.114,296.338 710.114,248.004 710.5,199.5C 709.99,196.593 709.323,193.759 708.5,191C 709.428,190.612 710.095,189.945 710.5,189C 709.684,140.315 709.518,91.1486 710,41.5C 709.667,42.1667 709.333,42.8333 709,43.5C 704.397,42.7155 699.731,42.0489 695,41.5C 680.202,41.5113 665.536,41.8447 651,42.5C 633.111,40.2776 615.444,40.2776 598,42.5C 545.618,41.4263 493.285,41.4263 441,42.5C 433.515,41.7231 426.015,41.0564 418.5,40.5C 411.7,40.9765 404.7,41.3098 397.5,41.5C 397.5,42.5 397.5,43.5 397.5,44.5C 403.176,44.6661 408.843,44.4994 414.5,44C 413.112,43.1107 413.278,42.6107 415,42.5C 419.705,43.602 424.371,44.602 429,45.5C 429.333,44.8333 429.667,44.1667 430,43.5C 441.442,44.8224 453.108,45.4891 465,45.5C 476.892,45.4891 488.558,44.8224 500,43.5C 502.068,44.3936 504.235,45.0603 506.5,45.5C 518.834,44.1676 531.001,44.1676 543,45.5C 550.826,44.8168 558.659,44.1502 566.5,43.5C 577.542,43.8754 588.709,43.8754 600,43.5C 601.574,44.8476 603.407,45.5142 605.5,45.5C 616.724,44.8884 627.891,44.2217 639,43.5C 639.75,44.1258 640.584,44.6258 641.5,45C 663.406,45.8266 685.24,45.6599 707,44.5C 707.791,59.5256 707.624,74.6923 706.5,90C 707.574,90.7387 708.241,91.7387 708.5,93C 708.081,96.9622 708.081,100.962 708.5,105C 707.392,108.039 706.725,111.206 706.5,114.5C 707.034,120.834 707.034,127.001 706.5,133C 706.972,137.743 707.639,142.41 708.5,147C 707.874,147.75 707.374,148.584 707,149.5C 707.145,182.212 706.978,214.379 706.5,246C 707.574,246.739 708.241,247.739 708.5,249C 708.2,252.784 708.2,256.617 708.5,260.5C 707.894,262.709 707.227,264.876 706.5,267C 706.796,307.232 706.796,346.899 706.5,386C 707.007,389.739 707.673,393.406 708.5,397C 706.566,399.887 706.566,402.554 708.5,405C 708.2,408.784 708.2,412.617 708.5,416.5C 707.6,418.932 706.934,421.432 706.5,424C 706.719,430.318 706.719,436.652 706.5,443C 706.6,445.302 707.267,447.302 708.5,449C 707.167,452.333 707.167,455.667 708.5,459C 707.267,460.698 706.6,462.698 706.5,465C 706.735,474.746 706.735,484.579 706.5,494.5C 700.167,494.5 693.833,494.5 687.5,494.5C 687.5,481.833 687.5,469.167 687.5,456.5C 662.672,455.502 637.672,455.169 612.5,455.5C 612.5,505.833 612.5,556.167 612.5,606.5C 637.672,606.831 662.672,606.498 687.5,605.5C 687.5,573.167 687.5,540.833 687.5,508.5C 693.833,508.5 700.167,508.5 706.5,508.5C 706.795,519.731 706.795,530.898 706.5,542C 707.21,547.621 707.877,553.288 708.5,559C 708.081,562.962 708.081,566.962 708.5,571C 707.392,574.039 706.725,577.206 706.5,580.5C 707.027,586.888 707.027,593.054 706.5,599C 706.748,600.716 707.415,602.216 708.5,603.5C 707.201,606.699 707.201,609.865 708.5,613C 707.874,613.75 707.374,614.584 707,615.5C 706.68,620.023 706.18,624.523 705.5,629C 705.792,641.56 706.792,653.893 708.5,666C 707.439,667.849 706.773,669.849 706.5,672C 706.509,685.347 706.509,698.681 706.5,712C 707.211,714.796 707.878,717.63 708.5,720.5C 708.36,725.393 707.693,730.727 706.5,736.5C 706.662,744.108 707.329,751.775 708.5,759.5C 707.424,767.157 706.424,774.991 705.5,783C 706.334,790.893 706.667,799.059 706.5,807.5C 629.5,807.5 552.5,807.5 475.5,807.5C 475.5,863.5 475.5,919.5 475.5,975.5C 470.898,976.968 466.231,977.301 461.5,976.5C 460.328,976.919 459.328,977.585 458.5,978.5C 451.303,977.85 444.136,977.183 437,976.5C 434.701,978.536 432.201,978.869 429.5,977.5C 426.833,978.167 424.167,978.833 421.5,979.5C 410.44,978.122 399.107,977.122 387.5,976.5C 382.704,976.753 378.204,977.753 374,979.5C 369.369,977.93 364.703,977.597 360,978.5C 358.261,977.106 356.261,976.439 354,976.5C 333.451,976.831 312.951,976.997 292.5,977C 291.643,977.689 290.977,978.522 290.5,979.5C 309.835,980.533 329.002,980.533 348,979.5C 356.467,980.381 364.967,981.047 373.5,981.5C 407.491,981.676 441.491,981.342 475.5,980.5C 475.827,990.348 475.494,1000.01 474.5,1009.5C 401.167,1009.5 327.833,1009.5 254.5,1009.5C 254.5,672.833 254.5,336.167 254.5,-0.5 Z"/></g>
<g><path style="opacity:1" fill="#383951" d="M 378.5,41.5 C 384.5,41.5 390.5,41.5 396.5,41.5C 396.5,42.5 396.5,43.5 396.5,44.5C 392.606,43.6244 388.606,43.6244 384.5,44.5C 381.711,44.2586 379.044,43.592 376.5,42.5C 375.151,42.8457 373.817,43.179 372.5,43.5C 371.391,42.71 370.058,42.21 368.5,42C 371.817,41.5017 375.15,41.335 378.5,41.5 Z"/></g>
<g><path style="opacity:1" fill="#64667f" d="M 352.5,41.5 C 361.167,40.1667 369.833,40.1667 378.5,41.5C 375.15,41.335 371.817,41.5017 368.5,42C 370.058,42.21 371.391,42.71 372.5,43.5C 370.716,44.7199 369.05,44.7199 367.5,43.5C 362.944,41.5583 357.944,40.8917 352.5,41.5 Z"/></g>
<g><path style="opacity:0.991" fill="#373850" d="M 1008.5,91.5 C 1014.64,94.3967 1020.98,97.23 1027.5,100C 1032.79,102.953 1037.12,106.953 1040.5,112C 1050.98,112.814 1058.48,117.981 1063,127.5C 1064.31,131.254 1065.48,134.921 1066.5,138.5C 1067.31,145.877 1066.14,152.877 1063,159.5C 1059.41,161.08 1055.91,162.747 1052.5,164.5C 1050.59,163.79 1048.92,162.623 1047.5,161C 1046.59,155.121 1045.42,149.288 1044,143.5C 1043,141.334 1041.5,139.667 1039.5,138.5C 1033.76,142.061 1028.43,146.228 1023.5,151C 1017.78,154.527 1011.78,157.527 1005.5,160C 1001.41,163.416 998.08,167.416 995.5,172C 993.5,172.667 991.5,172.667 989.5,172C 989.392,165.221 986.059,162.554 979.5,164C 977.396,166.042 976.229,168.542 976,171.5C 974.887,178.715 975.554,185.715 978,192.5C 981.312,195.656 984.979,198.323 989,200.5C 989.667,204.5 989.667,208.5 989,212.5C 986.486,219.521 983.986,226.521 981.5,233.5C 977.636,239.86 972.303,244.693 965.5,248C 958.877,250.304 952.21,252.638 945.5,255C 942.739,255.722 940.073,255.555 937.5,254.5C 934.825,253.897 932.492,252.564 930.5,250.5C 930.217,249.711 929.717,249.044 929,248.5C 921.933,250.781 918.6,248.114 919,240.5C 916.135,243.228 914.635,246.562 914.5,250.5C 914.151,254.961 915.651,258.628 919,261.5C 919.494,263.134 919.66,264.801 919.5,266.5C 907.226,268.577 900.893,263.243 900.5,250.5C 901.602,236.643 908.435,226.643 921,220.5C 924.581,216.091 925.915,211.091 925,205.5C 919.907,198.552 917.407,190.719 917.5,182C 918.557,166.667 922.557,152.167 929.5,138.5C 930.376,138.631 931.043,138.298 931.5,137.5C 937.418,127.995 943.585,118.662 950,109.5C 957.257,102.135 965.424,96.1354 974.5,91.5C 979.902,90.0845 985.402,89.0845 991,88.5C 996.905,89.1765 1002.74,90.1765 1008.5,91.5 Z M 927.5,233.5 C 926.871,235.997 925.204,237.33 922.5,237.5C 923.585,235.413 925.251,234.08 927.5,233.5 Z M 930.5,250.5 C 925.167,250.5 919.833,250.5 914.5,250.5C 914.635,246.562 916.135,243.228 919,240.5C 918.6,248.114 921.933,250.781 929,248.5C 929.717,249.044 930.217,249.711 930.5,250.5 Z"/></g>
<g><path style="opacity:0.988" fill="#72678e" d="M 974.5,91.5 C 965.424,96.1354 957.257,102.135 950,109.5C 943.585,118.662 937.418,127.995 931.5,137.5C 931.043,138.298 930.376,138.631 929.5,138.5C 908.167,138.5 886.833,138.5 865.5,138.5C 865.5,175.833 865.5,213.167 865.5,250.5C 877.167,250.5 888.833,250.5 900.5,250.5C 900.893,263.243 907.226,268.577 919.5,266.5C 919.5,267.167 919.5,267.833 919.5,268.5C 907.733,277.021 899.067,288.021 893.5,301.5C 884.167,301.5 874.833,301.5 865.5,301.5C 865.5,327.833 865.5,354.167 865.5,380.5C 858.766,406.117 851.433,431.451 843.5,456.5C 835.5,456.5 827.5,456.5 819.5,456.5C 819.5,334.833 819.5,213.167 819.5,91.5C 871.167,91.5 922.833,91.5 974.5,91.5 Z"/></g>
<g><path style="opacity:0.985" fill="#73688e" d="M 1008.5,91.5 C 1148.5,91.5 1288.5,91.5 1428.5,91.5C 1428.5,98.8333 1428.5,106.167 1428.5,113.5C 1425.59,117.152 1423.93,121.319 1423.5,126C 1424.24,129.938 1425.08,133.771 1426,137.5C 1414.97,144.892 1409.14,155.226 1408.5,168.5C 1408.37,179.251 1412.71,187.584 1421.5,193.5C 1422.87,197.591 1425.2,200.924 1428.5,203.5C 1428.5,220.167 1428.5,236.833 1428.5,253.5C 1417.34,269.799 1406.68,286.466 1396.5,303.5C 1396.86,304.183 1397.2,304.85 1397.5,305.5C 1395.78,307.218 1393.78,308.551 1391.5,309.5C 1390.03,308.26 1388.36,307.26 1386.5,306.5C 1385.7,306.957 1385.37,307.624 1385.5,308.5C 1383.82,307.147 1382.48,305.48 1381.5,303.5C 1381.5,302.167 1380.83,301.5 1379.5,301.5C 1377.4,300.588 1375.4,299.421 1373.5,298C 1355.52,281.176 1336.86,265.343 1317.5,250.5C 1338.83,250.5 1360.17,250.5 1381.5,250.5C 1381.5,213.167 1381.5,175.833 1381.5,138.5C 1304.5,138.5 1227.5,138.5 1150.5,138.5C 1150.5,175.833 1150.5,213.167 1150.5,250.5C 1182.83,250.5 1215.17,250.5 1247.5,250.5C 1247.5,250.833 1247.5,251.167 1247.5,251.5C 1246.32,254.638 1246.32,257.638 1247.5,260.5C 1248.5,260.833 1249.17,261.5 1249.5,262.5C 1245.8,270.307 1244.63,278.64 1246,287.5C 1247.5,292.19 1249,296.857 1250.5,301.5C 1217.17,301.5 1183.83,301.5 1150.5,301.5C 1150.5,331.5 1150.5,361.5 1150.5,391.5C 1150.5,392.167 1150.17,392.5 1149.5,392.5C 1146.47,389.472 1144.13,385.805 1142.5,381.5C 1141.17,381.167 1139.83,380.833 1138.5,380.5C 1131.64,381.9 1124.97,383.9 1118.5,386.5C 1118.5,358.167 1118.5,329.833 1118.5,301.5C 1088.5,301.5 1058.5,301.5 1028.5,301.5C 1023.92,292.071 1017.92,283.571 1010.5,276C 1008.53,274.456 1006.37,273.289 1004,272.5C 1003.5,265.174 1003.33,257.841 1003.5,250.5C 1041.83,250.5 1080.17,250.5 1118.5,250.5C 1118.5,213.167 1118.5,175.833 1118.5,138.5C 1101.17,138.5 1083.83,138.5 1066.5,138.5C 1065.48,134.921 1064.31,131.254 1063,127.5C 1058.48,117.981 1050.98,112.814 1040.5,112C 1037.12,106.953 1032.79,102.953 1027.5,100C 1020.98,97.23 1014.64,94.3967 1008.5,91.5 Z M 1317.5,250.5 C 1310.37,245.097 1303.04,239.93 1295.5,235C 1282.35,232.711 1269.18,231.878 1256,232.5C 1252.88,238.405 1250.05,244.405 1247.5,250.5C 1215.17,250.5 1182.83,250.5 1150.5,250.5C 1150.5,213.167 1150.5,175.833 1150.5,138.5C 1227.5,138.5 1304.5,138.5 1381.5,138.5C 1381.5,175.833 1381.5,213.167 1381.5,250.5C 1360.17,250.5 1338.83,250.5 1317.5,250.5 Z M 1254.5,301.5 C 1262.17,301.5 1269.83,301.5 1277.5,301.5C 1276.98,304.193 1275.48,306.193 1273,307.5C 1269.65,304.819 1266.99,305.486 1265,309.5C 1264.33,308.167 1263.67,308.167 1263,309.5C 1262.42,307.998 1261.58,306.665 1260.5,305.5C 1257.82,305.068 1255.82,303.734 1254.5,301.5 Z M 1379.5,301.5 C 1380.83,301.5 1381.5,302.167 1381.5,303.5C 1380.5,303.167 1379.83,302.5 1379.5,301.5 Z"/></g>
<g><path style="opacity:0.996" fill="#f0bc92" d="M 1550.5,195.5 C 1551.32,197.772 1551.99,200.106 1552.5,202.5C 1546.7,209.135 1540.36,215.302 1533.5,221C 1526.35,226.383 1518.35,228.716 1509.5,228C 1501.32,225.65 1495.98,220.483 1493.5,212.5C 1492.36,208.421 1491.03,204.421 1489.5,200.5C 1493.45,199.086 1496.78,196.586 1499.5,193C 1505.63,190.801 1511.63,188.301 1517.5,185.5C 1517.82,182.32 1516.49,181.153 1513.5,182C 1506,187.492 1498,192.158 1489.5,196C 1488.18,196.816 1487.51,197.983 1487.5,199.5C 1480.33,201.084 1473.16,202.751 1466,204.5C 1465.17,204.167 1464.33,203.833 1463.5,203.5C 1462.39,200.941 1461.06,198.608 1459.5,196.5C 1459.66,194.143 1459.5,191.81 1459,189.5C 1454.03,177.724 1449.2,165.89 1444.5,154C 1448.99,147.511 1453.49,141.011 1458,134.5C 1457.28,126.533 1456.94,118.533 1457,110.5C 1458.71,105.064 1461.88,100.73 1466.5,97.5C 1471.51,104.005 1478.18,107.338 1486.5,107.5C 1484.99,120.322 1490.66,126.989 1503.5,127.5C 1504.52,137.693 1509.85,141.193 1519.5,138C 1525.64,131.919 1531.47,132.086 1537,138.5C 1537.8,145.434 1536.14,151.767 1532,157.5C 1530.91,162.567 1531.74,167.234 1534.5,171.5C 1529.91,186.227 1535.24,194.227 1550.5,195.5 Z"/></g>
<g><path style="opacity:1" fill="#494456" d="M 1463.5,119.5 C 1467.17,119.5 1470.83,119.5 1474.5,119.5C 1474.5,120.5 1474.5,121.5 1474.5,122.5C 1479.37,122.373 1481.37,124.706 1480.5,129.5C 1477.29,127.804 1474.45,125.47 1472,122.5C 1469.65,122.265 1467.15,122.099 1464.5,122C 1463.75,121.329 1463.41,120.496 1463.5,119.5 Z"/></g>
<g><path style="opacity:1" fill="#5c515d" d="M 1493.5,129.5 C 1495.48,130.427 1495.81,131.76 1494.5,133.5C 1493.52,133.023 1492.69,132.357 1492,131.5C 1492.08,132.738 1491.91,133.738 1491.5,134.5C 1490.57,133.311 1490.24,131.978 1490.5,130.5C 1491.79,130.737 1492.79,130.404 1493.5,129.5 Z"/></g>
<g><path style="opacity:1" fill="#464255" d="M 1487.5,132.5 C 1488.5,132.47 1489.16,132.97 1489.5,134C 1487.98,136.961 1485.98,137.628 1483.5,136C 1485.09,135.051 1486.43,133.885 1487.5,132.5 Z"/></g>
<g><path style="opacity:0.988" fill="#f0bc92" d="M 1052.5,164.5 C 1050.31,174.082 1053.15,181.749 1061,187.5C 1062.28,193.61 1060.28,198.277 1055,201.5C 1052.93,204.961 1051.43,208.627 1050.5,212.5C 1049.73,211.828 1049.07,210.995 1048.5,210C 1043.48,208.481 1038.81,206.481 1034.5,204C 1034.17,204.333 1033.83,204.667 1033.5,205C 1038.09,209.517 1043.42,212.35 1049.5,213.5C 1047.32,219.545 1044.49,225.212 1041,230.5C 1033.42,227.623 1025.92,224.623 1018.5,221.5C 1014.67,219.753 1011,217.753 1007.5,215.5C 1006.61,216.325 1006.28,217.325 1006.5,218.5C 1007.87,218.343 1009.21,218.51 1010.5,219C 1011.72,221.034 1013.05,222.867 1014.5,224.5C 1010.51,231.806 1006.51,239.14 1002.5,246.5C 995.748,241.744 988.748,237.41 981.5,233.5C 983.986,226.521 986.486,219.521 989,212.5C 989.667,208.5 989.667,204.5 989,200.5C 984.979,198.323 981.312,195.656 978,192.5C 975.554,185.715 974.887,178.715 976,171.5C 976.229,168.542 977.396,166.042 979.5,164C 986.059,162.554 989.392,165.221 989.5,172C 991.5,172.667 993.5,172.667 995.5,172C 998.08,167.416 1001.41,163.416 1005.5,160C 1011.78,157.527 1017.78,154.527 1023.5,151C 1028.43,146.228 1033.76,142.061 1039.5,138.5C 1041.5,139.667 1043,141.334 1044,143.5C 1045.42,149.288 1046.59,155.121 1047.5,161C 1048.92,162.623 1050.59,163.79 1052.5,164.5 Z"/></g>
<g><path style="opacity:1" fill="#4b4657" d="M 1468.5,137.5 C 1473.08,137.211 1475.75,139.211 1476.5,143.5C 1473.95,143.559 1471.95,142.559 1470.5,140.5C 1464.91,143.1 1464.25,142.1 1468.5,137.5 Z"/></g>
<g><path style="opacity:1" fill="#4a4556" d="M 1486.5,141.5 C 1489,142.639 1491.67,143.306 1494.5,143.5C 1494.78,145.346 1494.11,146.68 1492.5,147.5C 1489.76,146.096 1487.76,144.096 1486.5,141.5 Z"/></g>
<g><path style="opacity:1" fill="#484456" d="M 1031.5,152.5 C 1032.5,152.5 1033.5,152.5 1034.5,152.5C 1034.5,153.833 1034.5,155.167 1034.5,156.5C 1028.56,156.28 1023.56,158.28 1019.5,162.5C 1018.27,160.157 1018.94,158.323 1021.5,157C 1023.59,155.325 1025.76,154.825 1028,155.5C 1029.15,154.364 1030.31,153.364 1031.5,152.5 Z"/></g>
<g><path style="opacity:1" fill="#4d4758" d="M 1478.5,158.5 C 1483.03,160.023 1486.36,163.023 1488.5,167.5C 1488.29,168.086 1487.96,168.586 1487.5,169C 1492.06,173.586 1491.39,176.753 1485.5,178.5C 1485.67,174.486 1485.5,170.486 1485,166.5C 1482.09,164.298 1479.92,161.631 1478.5,158.5 Z"/></g>
<g><path style="opacity:1" fill="#474355" d="M 977.5,173.5 C 981.066,174.288 984.066,176.122 986.5,179C 986.167,179.333 985.833,179.667 985.5,180C 988.06,180.227 989.726,181.56 990.5,184C 988.291,185.691 986.458,185.524 985,183.5C 984.626,184.416 984.126,185.25 983.5,186C 984.983,188.573 984.483,190.74 982,192.5C 981.667,187.833 981.333,183.167 981,178.5C 978.828,177.491 977.662,175.824 977.5,173.5 Z"/></g>
<g><path style="opacity:1" fill="#474255" d="M 1032.5,173.5 C 1034.86,173.337 1037.19,173.503 1039.5,174C 1040.34,175.011 1040.67,176.178 1040.5,177.5C 1038.42,177.528 1036.58,176.861 1035,175.5C 1033.83,177.167 1032.67,178.833 1031.5,180.5C 1030.37,178.01 1030.7,175.676 1032.5,173.5 Z"/></g>
<g><path style="opacity:1" fill="#4b4657" d="M 1467.5,169.5 C 1469.29,169.215 1470.95,169.548 1472.5,170.5C 1468.99,175.292 1464.49,178.958 1459,181.5C 1458.31,180.975 1457.81,180.308 1457.5,179.5C 1460.51,177.491 1463.51,175.491 1466.5,173.5C 1467.25,172.264 1467.58,170.93 1467.5,169.5 Z"/></g>
<g><path style="opacity:1" fill="#514a59" d="M 1489.5,200.5 C 1488.83,200.167 1488.17,199.833 1487.5,199.5C 1487.51,197.983 1488.18,196.816 1489.5,196C 1498,192.158 1506,187.492 1513.5,182C 1516.49,181.153 1517.82,182.32 1517.5,185.5C 1511.63,188.301 1505.63,190.801 1499.5,193C 1496.78,196.586 1493.45,199.086 1489.5,200.5 Z"/></g>
<g><path style="opacity:1" fill="#404159" d="M 352.5,41.5 C 357.944,40.8917 362.944,41.5583 367.5,43.5C 363.926,44.0245 360.426,44.0245 357,43.5C 355.441,44.0294 353.941,44.696 352.5,45.5C 346.019,43.5417 339.685,43.5417 333.5,45.5C 320.056,45.3162 306.39,44.9829 292.5,44.5C 292.667,60.5035 292.5,76.5035 292,92.5C 290.767,94.4225 290.6,96.5892 291.5,99C 291.416,101.501 290.75,103.834 289.5,106C 289.611,107.722 290.111,107.888 291,106.5C 291.807,112.416 291.641,118.25 290.5,124C 292.705,128.54 292.705,133.04 290.5,137.5C 290.623,144.499 290.956,151.666 291.5,159C 291.333,161.833 291.167,164.667 291,167.5C 290.5,168 290,168.5 289.5,169C 291.032,169.7 292.032,170.866 292.5,172.5C 291.894,174.709 291.227,176.876 290.5,179C 292.007,180.473 292.674,182.307 292.5,184.5C 292.479,205.808 292.312,227.141 292,248.5C 291.626,249.416 291.126,250.25 290.5,251C 291.21,259.449 291.876,267.949 292.5,276.5C 291.861,281.676 291.194,286.842 290.5,292C 290.985,299.939 290.985,307.939 290.5,316C 292.696,322.515 292.696,328.849 290.5,335C 292.007,336.473 292.674,338.307 292.5,340.5C 291.973,353.325 291.973,366.325 292.5,379.5C 292.333,387.833 292.167,396.167 292,404.5C 291.626,405.416 291.126,406.25 290.5,407C 291.655,419.424 291.821,431.924 291,444.5C 290.308,445.025 289.808,445.692 289.5,446.5C 290.447,448.059 291.113,449.726 291.5,451.5C 290.78,458.248 290.446,465.081 290.5,472C 291.416,474.57 292.082,477.237 292.5,480C 291.508,488.007 291.508,496.34 292.5,505C 292.227,507.151 291.561,509.151 290.5,511C 291.817,519.101 292.484,527.434 292.5,536C 292.333,544.167 292.167,552.333 292,560.5C 290.559,562.305 290.392,564.305 291.5,566.5C 290.711,566.783 290.044,567.283 289.5,568C 290.692,569.945 290.692,571.945 289.5,574C 289.611,575.722 290.111,575.888 291,574.5C 291.357,581.34 291.524,588.006 291.5,594.5C 291.357,596.262 291.691,597.929 292.5,599.5C 291.206,601.88 290.206,604.38 289.5,607C 289.892,608.011 290.559,608.511 291.5,608.5C 290.943,611.36 290.609,614.193 290.5,617C 291.187,623.492 291.854,629.992 292.5,636.5C 291.926,644.87 291.926,653.37 292.5,662C 292.025,663.763 291.358,665.43 290.5,667C 291.811,673.093 292.478,679.426 292.5,686C 292.033,694.644 292.033,703.144 292.5,711.5C 291.885,718.023 290.885,724.19 289.5,730C 289.611,731.722 290.111,731.888 291,730.5C 291.807,736.416 291.641,742.25 290.5,748C 291.991,750.621 292.658,753.455 292.5,756.5C 291.5,756.5 290.5,756.5 289.5,756.5C 289.855,759.067 290.521,761.567 291.5,764C 290.387,770.377 290.22,776.877 291,783.5C 290.586,783.957 290.086,784.291 289.5,784.5C 288.393,777.88 287.726,771.213 287.5,764.5C 288.761,752.33 288.761,740.164 287.5,728C 287.92,721.783 288.587,715.616 289.5,709.5C 288.17,682.97 288.17,656.47 289.5,630C 287.466,618.095 287.133,606.095 288.5,594C 288.581,591.375 289.248,589.041 290.5,587C 288.489,582.34 287.489,577.34 287.5,572C 287.92,565.783 288.587,559.616 289.5,553.5C 288.885,520.019 288.218,486.352 287.5,452.5C 287.771,447.662 288.104,442.829 288.5,438C 288.581,435.375 289.248,433.041 290.5,431C 288.489,426.34 287.489,421.34 287.5,416C 288.672,363.575 288.672,311.242 287.5,259C 288.04,253.129 288.707,247.296 289.5,241.5C 288.833,239.5 288.167,237.5 287.5,235.5C 288.191,225.52 288.858,215.52 289.5,205.5C 288.787,183.514 288.121,161.514 287.5,139.5C 288.773,127.136 288.773,114.97 287.5,103C 288.03,97.4613 288.697,91.9613 289.5,86.5C 288.679,71.6533 288.346,56.6533 288.5,41.5C 309.833,41.5 331.167,41.5 352.5,41.5 Z"/></g>
<g><path style="opacity:0.995" fill="#888aa4" d="M 1552.5,202.5 C 1573.64,212.496 1592.48,225.829 1609,242.5C 1613.45,247.628 1617.12,253.295 1620,259.5C 1628.44,284.122 1633.44,309.456 1635,335.5C 1636.36,348.523 1636.86,361.523 1636.5,374.5C 1634.55,375.372 1632.55,376.039 1630.5,376.5C 1629.57,375.432 1629.23,374.099 1629.5,372.5C 1614.47,374.706 1599.47,377.039 1584.5,379.5C 1584.17,381.667 1583.83,383.833 1583.5,386C 1584.64,395.47 1585.31,404.97 1585.5,414.5C 1585.5,420.5 1585.5,426.5 1585.5,432.5C 1583.81,434.477 1583.48,436.477 1584.5,438.5C 1584.22,442.574 1583.55,446.574 1582.5,450.5C 1574.2,451.332 1565.86,451.665 1557.5,451.5C 1556.05,450.115 1555.05,450.448 1554.5,452.5C 1529.77,452.829 1505.1,451.829 1480.5,449.5C 1479.79,448.596 1478.79,448.263 1477.5,448.5C 1468.31,448.666 1459.15,448.332 1450,447.5C 1447.7,447.453 1445.87,446.787 1444.5,445.5C 1450.36,430.36 1453.2,414.693 1453,398.5C 1449.32,385.61 1443.82,373.61 1436.5,362.5C 1440.36,360.731 1440.36,358.564 1436.5,356C 1436.83,355.667 1437.17,355.333 1437.5,355C 1435.49,348.293 1434.49,341.626 1434.5,335C 1437.94,325.339 1441.78,315.839 1446,306.5C 1449.4,295.625 1452.4,284.625 1455,273.5C 1455.5,270.518 1455.66,267.518 1455.5,264.5C 1454.5,264.5 1453.5,264.5 1452.5,264.5C 1451.1,272.619 1449.43,280.786 1447.5,289C 1447.56,290.436 1447.89,291.769 1448.5,293C 1443.49,301.377 1439.49,310.377 1436.5,320C 1436.64,320.772 1436.98,321.439 1437.5,322C 1431.24,328.527 1429.07,336.361 1431,345.5C 1432.04,350.668 1433.54,355.668 1435.5,360.5C 1433.48,358.469 1431.81,356.135 1430.5,353.5C 1430.7,351.011 1430.2,348.677 1429,346.5C 1419.98,331.841 1410.64,317.508 1401,303.5C 1399.7,303.978 1398.53,304.645 1397.5,305.5C 1397.2,304.85 1396.86,304.183 1396.5,303.5C 1406.68,286.466 1417.34,269.799 1428.5,253.5C 1443.84,229.986 1465.51,216.319 1493.5,212.5C 1495.98,220.483 1501.32,225.65 1509.5,228C 1518.35,228.716 1526.35,226.383 1533.5,221C 1540.36,215.302 1546.7,209.135 1552.5,202.5 Z"/></g>
<g><path style="opacity:1" fill="#444154" d="M 1050.5,212.5 C 1050.5,213.167 1050.17,213.5 1049.5,213.5C 1043.42,212.35 1038.09,209.517 1033.5,205C 1033.83,204.667 1034.17,204.333 1034.5,204C 1038.81,206.481 1043.48,208.481 1048.5,210C 1049.07,210.995 1049.73,211.828 1050.5,212.5 Z"/></g>
<g><path style="opacity:0.857" fill="#403e53" d="M 1018.5,221.5 C 1017.97,223.446 1016.63,224.446 1014.5,224.5C 1013.05,222.867 1011.72,221.034 1010.5,219C 1009.21,218.51 1007.87,218.343 1006.5,218.5C 1006.28,217.325 1006.61,216.325 1007.5,215.5C 1011,217.753 1014.67,219.753 1018.5,221.5 Z"/></g>
<g><path style="opacity:0.993" fill="#f1e7df" d="M 981.5,233.5 C 988.748,237.41 995.748,241.744 1002.5,246.5C 1003.43,247.568 1003.77,248.901 1003.5,250.5C 1003.33,257.841 1003.5,265.174 1004,272.5C 1006.37,273.289 1008.53,274.456 1010.5,276C 1017.92,283.571 1023.92,292.071 1028.5,301.5C 1041.44,329.72 1054.11,358.053 1066.5,386.5C 1065.42,388.823 1065.58,391.157 1067,393.5C 1071.12,399.947 1074.79,406.614 1078,413.5C 1080.4,419.07 1082.57,424.737 1084.5,430.5C 1088.38,430.517 1089.04,429.351 1086.5,427C 1086.83,426.667 1087.17,426.333 1087.5,426C 1083.72,418.151 1080.06,410.317 1076.5,402.5C 1090.28,396.611 1104.28,391.278 1118.5,386.5C 1124.97,383.9 1131.64,381.9 1138.5,380.5C 1139.83,380.833 1141.17,381.167 1142.5,381.5C 1144.13,385.805 1146.47,389.472 1149.5,392.5C 1148.91,393.151 1148.24,393.818 1147.5,394.5C 1151.93,405.293 1156.26,416.127 1160.5,427C 1160.84,428.03 1161.5,428.53 1162.5,428.5C 1165.08,434.572 1166.41,440.905 1166.5,447.5C 1155.33,450.372 1144.33,453.372 1133.5,456.5C 1106.17,462.833 1078.83,469.167 1051.5,475.5C 1051.33,470.785 1049.83,466.452 1047,462.5C 1046.29,460.633 1046.79,459.133 1048.5,458C 1053.17,457.333 1057.83,456.667 1062.5,456C 1063.36,455.311 1064.02,454.478 1064.5,453.5C 1061.05,449.425 1057.71,445.258 1054.5,441C 1048.38,438.822 1042.04,437.989 1035.5,438.5C 1032.98,431.288 1030.31,424.121 1027.5,417C 1029.56,411.137 1032.22,405.637 1035.5,400.5C 1043.47,387.101 1046.63,372.434 1045,356.5C 1044.57,350.759 1043.73,345.092 1042.5,339.5C 1041.5,339.5 1040.5,339.5 1039.5,339.5C 1041.05,351.323 1042.38,362.657 1043.5,373.5C 1041.36,378.735 1039.53,384.068 1038,389.5C 1035.13,392.299 1033.29,395.633 1032.5,399.5C 1030.26,403.593 1027.76,407.593 1025,411.5C 1011.45,377.506 997.113,343.839 982,310.5C 975.097,295.69 967.43,281.357 959,267.5C 954.331,262.331 948.497,259.998 941.5,260.5C 933.106,260.369 925.773,263.035 919.5,268.5C 919.5,267.833 919.5,267.167 919.5,266.5C 924.684,261.323 930.684,257.323 937.5,254.5C 940.073,255.555 942.739,255.722 945.5,255C 952.21,252.638 958.877,250.304 965.5,248C 972.303,244.693 977.636,239.86 981.5,233.5 Z"/></g>
<g><path style="opacity:0.991" fill="#f1bc92" d="M 1317.5,250.5 C 1336.86,265.343 1355.52,281.176 1373.5,298C 1375.4,299.421 1377.4,300.588 1379.5,301.5C 1379.83,302.5 1380.5,303.167 1381.5,303.5C 1382.48,305.48 1383.82,307.147 1385.5,308.5C 1390.27,313.238 1394.77,318.238 1399,323.5C 1401.92,329.415 1405.25,335.082 1409,340.5C 1411.42,338.716 1411.75,336.383 1410,333.5C 1404.75,324.756 1398.58,316.756 1391.5,309.5C 1393.78,308.551 1395.78,307.218 1397.5,305.5C 1398.53,304.645 1399.7,303.978 1401,303.5C 1410.64,317.508 1419.98,331.841 1429,346.5C 1430.2,348.677 1430.7,351.011 1430.5,353.5C 1429.33,354.514 1428.66,355.847 1428.5,357.5C 1423.16,367.678 1415.82,376.178 1406.5,383C 1397.79,388.033 1389.45,387.533 1381.5,381.5C 1372.97,372.793 1365.14,363.46 1358,353.5C 1347.07,336.632 1336.9,319.299 1327.5,301.5C 1326.58,298.492 1325.25,295.659 1323.5,293C 1316.1,292.849 1308.77,292.182 1301.5,291C 1296.04,289.037 1292.04,285.537 1289.5,280.5C 1289.77,278.901 1289.43,277.568 1288.5,276.5C 1283.24,274.33 1277.74,273.996 1272,275.5C 1269.78,275.607 1267.95,274.94 1266.5,273.5C 1264.16,269.602 1263.99,265.602 1266,261.5C 1267.96,264.576 1269.79,267.742 1271.5,271C 1273.44,272.903 1275.77,273.736 1278.5,273.5C 1278.65,272.448 1278.48,271.448 1278,270.5C 1273.36,269.211 1270.52,266.211 1269.5,261.5C 1275.06,260.223 1279.73,261.723 1283.5,266C 1286.17,267.557 1289.01,268.724 1292,269.5C 1293.4,269.22 1294.56,268.553 1295.5,267.5C 1292.94,266.24 1290.44,264.906 1288,263.5C 1287.51,261.866 1287.34,260.199 1287.5,258.5C 1291.24,258.143 1294.57,256.81 1297.5,254.5C 1296.56,253.447 1295.4,252.78 1294,252.5C 1288.74,254.535 1283.58,256.868 1278.5,259.5C 1275.93,258.366 1273.26,257.532 1270.5,257C 1275.5,250 1280.5,243 1285.5,236C 1284.58,235.626 1283.75,235.126 1283,234.5C 1279.18,237.324 1276.51,240.991 1275,245.5C 1270.61,250.551 1266.28,255.551 1262,260.5C 1260.85,263.393 1260.35,266.393 1260.5,269.5C 1259.17,268.5 1257.83,267.5 1256.5,266.5C 1257.43,265.685 1258.43,264.852 1259.5,264C 1258.38,260.927 1258.22,257.76 1259,254.5C 1262.33,249.167 1265.67,243.833 1269,238.5C 1270.71,233.104 1269.54,232.438 1265.5,236.5C 1262.32,242.199 1259.15,247.865 1256,253.5C 1254.81,257.531 1254.64,261.531 1255.5,265.5C 1254.17,265.167 1252.83,264.833 1251.5,264.5C 1251.17,263.5 1250.5,262.833 1249.5,262.5C 1249.17,261.5 1248.5,260.833 1247.5,260.5C 1250.31,254.113 1253.64,247.946 1257.5,242C 1257.15,240.743 1256.48,240.409 1255.5,241C 1253.43,244.983 1250.76,248.483 1247.5,251.5C 1247.5,251.167 1247.5,250.833 1247.5,250.5C 1250.05,244.405 1252.88,238.405 1256,232.5C 1269.18,231.878 1282.35,232.711 1295.5,235C 1303.04,239.93 1310.37,245.097 1317.5,250.5 Z"/></g>
<g><path style="opacity:0.953" fill="#72688e" d="M 914.5,250.5 C 919.833,250.5 925.167,250.5 930.5,250.5C 932.492,252.564 934.825,253.897 937.5,254.5C 930.684,257.323 924.684,261.323 919.5,266.5C 919.66,264.801 919.494,263.134 919,261.5C 915.651,258.628 914.151,254.961 914.5,250.5 Z"/></g>
<g><path style="opacity:1" fill="#413f54" d="M 1247.5,260.5 C 1246.32,257.638 1246.32,254.638 1247.5,251.5C 1250.76,248.483 1253.43,244.983 1255.5,241C 1256.48,240.409 1257.15,240.743 1257.5,242C 1253.64,247.946 1250.31,254.113 1247.5,260.5 Z"/></g>
<g><path style="opacity:1" fill="#4e4858" d="M 1256.5,266.5 C 1255.83,266.5 1255.5,266.167 1255.5,265.5C 1254.64,261.531 1254.81,257.531 1256,253.5C 1259.15,247.865 1262.32,242.199 1265.5,236.5C 1269.54,232.438 1270.71,233.104 1269,238.5C 1265.67,243.833 1262.33,249.167 1259,254.5C 1258.22,257.76 1258.38,260.927 1259.5,264C 1258.43,264.852 1257.43,265.685 1256.5,266.5 Z"/></g>
<g><path style="opacity:1" fill="#4b4557" d="M 1266.5,273.5 C 1265.58,274.303 1264.58,274.47 1263.5,274C 1262.6,272.348 1261.6,270.848 1260.5,269.5C 1260.35,266.393 1260.85,263.393 1262,260.5C 1266.28,255.551 1270.61,250.551 1275,245.5C 1276.51,240.991 1279.18,237.324 1283,234.5C 1283.75,235.126 1284.58,235.626 1285.5,236C 1280.5,243 1275.5,250 1270.5,257C 1273.26,257.532 1275.93,258.366 1278.5,259.5C 1283.58,256.868 1288.74,254.535 1294,252.5C 1295.4,252.78 1296.56,253.447 1297.5,254.5C 1294.57,256.81 1291.24,258.143 1287.5,258.5C 1287.34,260.199 1287.51,261.866 1288,263.5C 1290.44,264.906 1292.94,266.24 1295.5,267.5C 1294.56,268.553 1293.4,269.22 1292,269.5C 1289.01,268.724 1286.17,267.557 1283.5,266C 1279.73,261.723 1275.06,260.223 1269.5,261.5C 1270.52,266.211 1273.36,269.211 1278,270.5C 1278.48,271.448 1278.65,272.448 1278.5,273.5C 1275.77,273.736 1273.44,272.903 1271.5,271C 1269.79,267.742 1267.96,264.576 1266,261.5C 1263.99,265.602 1264.16,269.602 1266.5,273.5 Z"/></g>
<g><path style="opacity:0.99" fill="#373850" d="M 1032.5,399.5 C 1033.5,399.586 1034.33,399.252 1035,398.5C 1035.46,399.094 1035.63,399.761 1035.5,400.5C 1032.22,405.637 1029.56,411.137 1027.5,417C 1030.31,424.121 1032.98,431.288 1035.5,438.5C 1029.47,438.425 1023.47,438.759 1017.5,439.5C 1017.5,440.5 1017.5,441.5 1017.5,442.5C 1016.17,442.5 1014.83,442.5 1013.5,442.5C 1009.24,441.807 1008.9,440.974 1012.5,440C 1010.38,439.658 1010.05,438.825 1011.5,437.5C 1013.47,437.261 1015.3,437.594 1017,438.5C 1016.8,434.042 1015.8,429.709 1014,425.5C 1013.62,424.944 1013.12,424.611 1012.5,424.5C 996.45,375.734 977.617,328.067 956,281.5C 951.334,273.587 944.501,270.754 935.5,273C 921.563,277.27 911.73,286.104 906,299.5C 898.554,321.621 891.887,343.954 886,366.5C 877.38,397.978 869.547,429.645 862.5,461.5C 859.367,472.366 856.7,483.366 854.5,494.5C 853.761,497.652 853.761,500.985 854.5,504.5C 878.819,504.149 902.986,503.815 927,503.5C 928.658,503.675 929.991,504.342 931,505.5C 931.758,503.09 933.425,502.09 936,502.5C 949.495,502.177 962.828,502.51 976,503.5C 995.001,501.874 1013.83,501.207 1032.5,501.5C 1032.5,499.167 1032.5,496.833 1032.5,494.5C 1034.88,493.438 1034.88,492.105 1032.5,490.5C 1034.3,489.232 1036.3,488.565 1038.5,488.5C 1041.5,486.5 1044.5,484.5 1047.5,482.5C 1048.09,485.127 1048.42,487.794 1048.5,490.5C 1051.83,525.928 1054.16,561.428 1055.5,597C 1054.26,626.922 1051.93,656.756 1048.5,686.5C 1043.36,687.488 1038.03,687.821 1032.5,687.5C 1040.91,757.112 1048.91,826.778 1056.5,896.5C 1056.59,898.912 1055.59,900.745 1053.5,902C 1048.48,905.015 1043.14,907.182 1037.5,908.5C 1023.77,910.64 1010.1,911.973 996.5,912.5C 992.122,912.371 987.955,912.371 984,912.5C 982.529,911.619 981.696,910.286 981.5,908.5C 972.426,839.571 963.926,770.571 956,701.5C 954.25,765.829 952.75,830.162 951.5,894.5C 937.094,895.63 922.594,895.63 908,894.5C 896.61,892.576 885.11,891.076 873.5,890C 867.485,889.084 861.652,887.584 856,885.5C 855.617,886.056 855.117,886.389 854.5,886.5C 853.604,822.505 853.271,758.505 853.5,694.5C 850.327,695.368 847.327,695.368 844.5,694.5C 850.606,666.02 854.273,637.187 855.5,608C 853.679,574.064 847.679,540.897 837.5,508.5C 827.639,508.138 817.639,507.972 807.5,508C 807.043,507.586 806.709,507.086 806.5,506.5C 816.167,505.833 825.833,505.167 835.5,504.5C 833.33,501.328 832.997,497.994 834.5,494.5C 837.5,481.833 840.5,469.167 843.5,456.5C 851.433,431.451 858.766,406.117 865.5,380.5C 874.018,353.95 883.351,327.616 893.5,301.5C 899.067,288.021 907.733,277.021 919.5,268.5C 925.773,263.035 933.106,260.369 941.5,260.5C 948.497,259.998 954.331,262.331 959,267.5C 967.43,281.357 975.097,295.69 982,310.5C 997.113,343.839 1011.45,377.506 1025,411.5C 1027.76,407.593 1030.26,403.593 1032.5,399.5 Z"/></g>
<g><path style="opacity:0.987" fill="#73678e" d="M 1251.5,264.5 C 1252.83,264.833 1254.17,265.167 1255.5,265.5C 1255.5,266.167 1255.83,266.5 1256.5,266.5C 1257.83,267.5 1259.17,268.5 1260.5,269.5C 1261.6,270.848 1262.6,272.348 1263.5,274C 1264.58,274.47 1265.58,274.303 1266.5,273.5C 1267.95,274.94 1269.78,275.607 1272,275.5C 1277.74,273.996 1283.24,274.33 1288.5,276.5C 1285.41,277.495 1284.74,279.495 1286.5,282.5C 1284.96,288.006 1282.96,293.673 1280.5,299.5C 1279.48,300.193 1278.48,300.859 1277.5,301.5C 1269.83,301.5 1262.17,301.5 1254.5,301.5C 1251.53,297.414 1250.03,292.747 1250,287.5C 1249.14,279.602 1249.64,271.935 1251.5,264.5 Z"/></g>
<g><path style="opacity:0.999" fill="#f1e7de" d="M 1012.5,424.5 C 1003.67,422.318 995.335,423.484 987.5,428C 983.311,431.69 978.978,435.19 974.5,438.5C 971.688,447.383 969.188,456.383 967,465.5C 965.738,469.909 966.572,473.743 969.5,477C 979.506,481.336 989.173,486.17 998.5,491.5C 952.163,492.385 905.83,493.385 859.5,494.5C 860.177,483.739 861.51,473.072 863.5,462.5C 863.376,461.893 863.043,461.56 862.5,461.5C 869.547,429.645 877.38,397.978 886,366.5C 891.887,343.954 898.554,321.621 906,299.5C 911.73,286.104 921.563,277.27 935.5,273C 944.501,270.754 951.334,273.587 956,281.5C 977.617,328.067 996.45,375.734 1012.5,424.5 Z"/></g>
<g><path style="opacity:0.949" fill="#73688e" d="M 1289.5,280.5 C 1292.04,285.537 1296.04,289.037 1301.5,291C 1308.77,292.182 1316.1,292.849 1323.5,293C 1325.25,295.659 1326.58,298.492 1327.5,301.5C 1313.17,301.5 1298.83,301.5 1284.5,301.5C 1286.95,294.697 1288.62,287.697 1289.5,280.5 Z"/></g>
<g><path style="opacity:0.829" fill="#393952" d="M 1249.5,262.5 C 1250.5,262.833 1251.17,263.5 1251.5,264.5C 1249.64,271.935 1249.14,279.602 1250,287.5C 1250.03,292.747 1251.53,297.414 1254.5,301.5C 1255.82,303.734 1257.82,305.068 1260.5,305.5C 1261.58,306.665 1262.42,307.998 1263,309.5C 1263.67,308.167 1264.33,308.167 1265,309.5C 1266.99,305.486 1269.65,304.819 1273,307.5C 1275.48,306.193 1276.98,304.193 1277.5,301.5C 1278.48,300.859 1279.48,300.193 1280.5,299.5C 1282.96,293.673 1284.96,288.006 1286.5,282.5C 1284.74,279.495 1285.41,277.495 1288.5,276.5C 1289.43,277.568 1289.77,278.901 1289.5,280.5C 1288.62,287.697 1286.95,294.697 1284.5,301.5C 1282.24,305.595 1279.07,308.928 1275,311.5C 1274.81,315.076 1273.64,318.242 1271.5,321C 1272.34,322.011 1272.67,323.178 1272.5,324.5C 1274.14,324.286 1275.64,324.62 1277,325.5C 1277.67,326.167 1277.67,326.833 1277,327.5C 1271.75,329.153 1271.58,330.153 1276.5,330.5C 1276.94,334.529 1275.11,336.529 1271,336.5C 1270.67,336.167 1270.33,335.833 1270,335.5C 1269.99,327.464 1267.83,320.131 1263.5,313.5C 1260.8,318.776 1259.8,324.443 1260.5,330.5C 1262.17,330.5 1263.83,330.5 1265.5,330.5C 1265.81,332.924 1265.47,335.257 1264.5,337.5C 1262.29,336.894 1260.12,336.227 1258,335.5C 1258.36,328.622 1257.03,322.289 1254,316.5C 1253.78,313.574 1253.28,310.74 1252.5,308C 1252.83,307.667 1253.17,307.333 1253.5,307C 1251.83,305.494 1250.83,303.661 1250.5,301.5C 1249,296.857 1247.5,292.19 1246,287.5C 1244.63,278.64 1245.8,270.307 1249.5,262.5 Z M 1254.5,301.5 C 1262.17,301.5 1269.83,301.5 1277.5,301.5C 1276.98,304.193 1275.48,306.193 1273,307.5C 1269.65,304.819 1266.99,305.486 1265,309.5C 1264.33,308.167 1263.67,308.167 1263,309.5C 1262.42,307.998 1261.58,306.665 1260.5,305.5C 1257.82,305.068 1255.82,303.734 1254.5,301.5 Z"/></g>
<g><path style="opacity:1" fill="#404159" d="M 1436.5,362.5 C 1435.66,362.158 1435.33,361.492 1435.5,360.5C 1433.54,355.668 1432.04,350.668 1431,345.5C 1429.07,336.361 1431.24,328.527 1437.5,322C 1436.98,321.439 1436.64,320.772 1436.5,320C 1439.49,310.377 1443.49,301.377 1448.5,293C 1447.89,291.769 1447.56,290.436 1447.5,289C 1449.43,280.786 1451.1,272.619 1452.5,264.5C 1453.5,264.5 1454.5,264.5 1455.5,264.5C 1455.66,267.518 1455.5,270.518 1455,273.5C 1452.4,284.625 1449.4,295.625 1446,306.5C 1441.78,315.839 1437.94,325.339 1434.5,335C 1434.49,341.626 1435.49,348.293 1437.5,355C 1437.17,355.333 1436.83,355.667 1436.5,356C 1440.36,358.564 1440.36,360.731 1436.5,362.5 Z"/></g>
<g><path style="opacity:1" fill="#3f4059" d="M 710.5,494.5 C 709.167,494.5 707.833,494.5 706.5,494.5C 706.735,484.579 706.735,474.746 706.5,465C 706.6,462.698 707.267,460.698 708.5,459C 707.167,455.667 707.167,452.333 708.5,449C 707.267,447.302 706.6,445.302 706.5,443C 706.719,436.652 706.719,430.318 706.5,424C 706.934,421.432 707.6,418.932 708.5,416.5C 708.2,412.617 708.2,408.784 708.5,405C 706.566,402.554 706.566,399.887 708.5,397C 707.673,393.406 707.007,389.739 706.5,386C 706.796,346.899 706.796,307.232 706.5,267C 707.227,264.876 707.894,262.709 708.5,260.5C 708.2,256.617 708.2,252.784 708.5,249C 708.241,247.739 707.574,246.739 706.5,246C 706.978,214.379 707.145,182.212 707,149.5C 707.374,148.584 707.874,147.75 708.5,147C 707.639,142.41 706.972,137.743 706.5,133C 707.034,127.001 707.034,120.834 706.5,114.5C 706.725,111.206 707.392,108.039 708.5,105C 708.081,100.962 708.081,96.9622 708.5,93C 708.241,91.7387 707.574,90.7387 706.5,90C 707.624,74.6923 707.791,59.5256 707,44.5C 685.24,45.6599 663.406,45.8266 641.5,45C 640.584,44.6258 639.75,44.1258 639,43.5C 627.891,44.2217 616.724,44.8884 605.5,45.5C 603.407,45.5142 601.574,44.8476 600,43.5C 588.709,43.8754 577.542,43.8754 566.5,43.5C 558.659,44.1502 550.826,44.8168 543,45.5C 531.001,44.1676 518.834,44.1676 506.5,45.5C 504.235,45.0603 502.068,44.3936 500,43.5C 488.558,44.8224 476.892,45.4891 465,45.5C 453.108,45.4891 441.442,44.8224 430,43.5C 429.667,44.1667 429.333,44.8333 429,45.5C 424.371,44.602 419.705,43.602 415,42.5C 413.278,42.6107 413.112,43.1107 414.5,44C 408.843,44.4994 403.176,44.6661 397.5,44.5C 397.5,43.5 397.5,42.5 397.5,41.5C 404.7,41.3098 411.7,40.9765 418.5,40.5C 426.015,41.0564 433.515,41.7231 441,42.5C 493.285,41.4263 545.618,41.4263 598,42.5C 615.444,40.2776 633.111,40.2776 651,42.5C 665.536,41.8447 680.202,41.5113 695,41.5C 699.731,42.0489 704.397,42.7155 709,43.5C 709.333,42.8333 709.667,42.1667 710,41.5C 709.518,91.1486 709.684,140.315 710.5,189C 710.095,189.945 709.428,190.612 708.5,191C 709.323,193.759 709.99,196.593 710.5,199.5C 710.114,248.004 710.114,296.338 710.5,344.5C 710.182,345.647 709.516,346.481 708.5,347C 709.323,349.759 709.99,352.593 710.5,355.5C 710.876,402.087 710.876,448.421 710.5,494.5 Z"/></g>
<g><path style="opacity:1" fill="#504959" d="M 1391.5,309.5 C 1398.58,316.756 1404.75,324.756 1410,333.5C 1411.75,336.383 1411.42,338.716 1409,340.5C 1405.25,335.082 1401.92,329.415 1399,323.5C 1394.77,318.238 1390.27,313.238 1385.5,308.5C 1385.37,307.624 1385.7,306.957 1386.5,306.5C 1388.36,307.26 1390.03,308.26 1391.5,309.5 Z"/></g>
<g><path style="opacity:1" fill="#41425a" d="M 1567.5,259.5 C 1569,259.415 1570,260.081 1570.5,261.5C 1562.06,292.25 1559.72,323.25 1563.5,354.5C 1562.31,355.429 1560.98,355.762 1559.5,355.5C 1559.49,353.453 1559.16,351.453 1558.5,349.5C 1558.53,347.971 1559.2,346.804 1560.5,346C 1559.17,344.667 1559.17,343.333 1560.5,342C 1558.98,337.145 1557.98,332.145 1557.5,327C 1557.82,323.258 1558.82,319.758 1560.5,316.5C 1559.62,315.452 1558.95,314.285 1558.5,313C 1560.57,306.488 1561.23,299.988 1560.5,293.5C 1561.56,281.876 1563.89,270.542 1567.5,259.5 Z"/></g>
<g><path style="opacity:1" fill="#484356" d="M 1264.5,346.5 C 1264.72,347.675 1264.39,348.675 1263.5,349.5C 1257.44,353.522 1251.44,357.522 1245.5,361.5C 1242.63,361.369 1240.97,362.703 1240.5,365.5C 1237.73,368.771 1234.73,371.938 1231.5,375C 1230.28,375.563 1229.28,375.23 1228.5,374C 1235.77,364.893 1244.1,357.06 1253.5,350.5C 1256.57,348.879 1259.4,346.879 1262,344.5C 1262.99,345.066 1263.83,345.733 1264.5,346.5 Z"/></g>
<g><path style="opacity:0.971" fill="#f0bc92" d="M 1253.5,350.5 C 1244.1,357.06 1235.77,364.893 1228.5,374C 1229.28,375.23 1230.28,375.563 1231.5,375C 1234.73,371.938 1237.73,368.771 1240.5,365.5C 1242.19,364.136 1243.86,362.803 1245.5,361.5C 1251.44,357.522 1257.44,353.522 1263.5,349.5C 1264.39,348.675 1264.72,347.675 1264.5,346.5C 1265.76,347.514 1266.43,349.014 1266.5,351C 1266.2,353.848 1265.87,356.681 1265.5,359.5C 1263.86,358.782 1262.2,358.616 1260.5,359C 1250.52,368.646 1240.18,377.98 1229.5,387C 1227.17,387.667 1224.83,387.667 1222.5,387C 1207.82,381.102 1194.15,382.936 1181.5,392.5C 1181.83,393.5 1182.5,394.167 1183.5,394.5C 1193.01,388.31 1203.35,385.644 1214.5,386.5C 1217.96,386.973 1221.29,388.473 1224.5,391C 1228.33,391.758 1231.66,390.758 1234.5,388C 1235.83,387.333 1235.83,386.667 1234.5,386C 1238.59,383.855 1242.59,381.521 1246.5,379C 1252.32,373.019 1258.32,367.185 1264.5,361.5C 1258.9,376.613 1250.24,389.779 1238.5,401C 1231.42,404.635 1224.09,407.135 1216.5,408.5C 1209.17,409.022 1201.84,409.522 1194.5,410C 1183.61,415.941 1172.94,422.108 1162.5,428.5C 1161.5,428.53 1160.84,428.03 1160.5,427C 1156.26,416.127 1151.93,405.293 1147.5,394.5C 1148.24,393.818 1148.91,393.151 1149.5,392.5C 1150.17,392.5 1150.5,392.167 1150.5,391.5C 1156.48,389.18 1162.48,386.846 1168.5,384.5C 1171,375.517 1176,368.35 1183.5,363C 1191.65,360.439 1199.98,358.773 1208.5,358C 1213.55,353.809 1215.05,354.642 1213,360.5C 1209,363.669 1205.17,367.003 1201.5,370.5C 1200.28,371.028 1199.11,371.695 1198,372.5C 1196.52,378.4 1192.69,381.4 1186.5,381.5C 1186.5,382.5 1186.5,383.5 1186.5,384.5C 1187.82,384.33 1188.99,384.663 1190,385.5C 1191.89,384.07 1193.55,382.403 1195,380.5C 1195.33,380.833 1195.67,381.167 1196,381.5C 1197.86,378.436 1199.69,375.436 1201.5,372.5C 1206.87,369.979 1211.87,366.812 1216.5,363C 1225.2,354.629 1234.2,346.629 1243.5,339C 1245.11,338.28 1246.61,338.446 1248,339.5C 1248.35,342.576 1249.01,345.576 1250,348.5C 1250.82,349.823 1251.98,350.489 1253.5,350.5 Z"/></g>
<g><path style="opacity:1" fill="#4b4657" d="M 1245.5,349.5 C 1249.49,351.041 1249.49,352.875 1245.5,355C 1240.58,356.842 1236.08,359.342 1232,362.5C 1231.28,361.549 1230.45,361.383 1229.5,362C 1227.25,366.295 1223.92,369.461 1219.5,371.5C 1218.69,371.192 1218.03,370.692 1217.5,370C 1225.89,361.637 1235.23,354.804 1245.5,349.5 Z"/></g>
<g><path style="opacity:0.972" fill="#73688f" d="M 1428.5,357.5 C 1428.5,390.5 1428.5,423.5 1428.5,456.5C 1330.17,456.5 1231.83,456.5 1133.5,456.5C 1144.33,453.372 1155.33,450.372 1166.5,447.5C 1166.41,440.905 1165.08,434.572 1162.5,428.5C 1172.94,422.108 1183.61,415.941 1194.5,410C 1201.84,409.522 1209.17,409.022 1216.5,408.5C 1271.5,408.5 1326.5,408.5 1381.5,408.5C 1381.5,399.5 1381.5,390.5 1381.5,381.5C 1389.45,387.533 1397.79,388.033 1406.5,383C 1415.82,376.178 1423.16,367.678 1428.5,357.5 Z"/></g>
<g><path style="opacity:1" fill="#474355" d="M 1265.5,359.5 C 1265.67,360.492 1265.34,361.158 1264.5,361.5C 1258.32,367.185 1252.32,373.019 1246.5,379C 1242.59,381.521 1238.59,383.855 1234.5,386C 1235.83,386.667 1235.83,387.333 1234.5,388C 1231.66,390.758 1228.33,391.758 1224.5,391C 1221.29,388.473 1217.96,386.973 1214.5,386.5C 1203.35,385.644 1193.01,388.31 1183.5,394.5C 1182.5,394.167 1181.83,393.5 1181.5,392.5C 1194.15,382.936 1207.82,381.102 1222.5,387C 1224.83,387.667 1227.17,387.667 1229.5,387C 1240.18,377.98 1250.52,368.646 1260.5,359C 1262.2,358.616 1263.86,358.782 1265.5,359.5 Z"/></g>
<g><path style="opacity:1" fill="#3c3d55" d="M 1559.5,356.5 C 1560.83,356.5 1562.17,356.5 1563.5,356.5C 1564.5,365.661 1566,374.661 1568,383.5C 1570.57,380.653 1573.57,379.987 1577,381.5C 1577.48,382.448 1577.65,383.448 1577.5,384.5C 1573.16,384.739 1568.82,385.073 1564.5,385.5C 1562.93,375.829 1561.26,366.162 1559.5,356.5 Z"/></g>
<g><path style="opacity:1" fill="#997e73" d="M 1245.5,361.5 C 1243.86,362.803 1242.19,364.136 1240.5,365.5C 1240.97,362.703 1242.63,361.369 1245.5,361.5 Z"/></g>
<g><path style="opacity:0.961" fill="#434054" d="M 1201.5,370.5 C 1201.5,371.167 1201.5,371.833 1201.5,372.5C 1199.69,375.436 1197.86,378.436 1196,381.5C 1195.67,381.167 1195.33,380.833 1195,380.5C 1193.55,382.403 1191.89,384.07 1190,385.5C 1188.99,384.663 1187.82,384.33 1186.5,384.5C 1186.5,383.5 1186.5,382.5 1186.5,381.5C 1192.69,381.4 1196.52,378.4 1198,372.5C 1199.11,371.695 1200.28,371.028 1201.5,370.5 Z"/></g>
<g><path style="opacity:0.995" fill="#f1bd93" d="M 1630.5,376.5 C 1632.02,390.507 1633.69,404.507 1635.5,418.5C 1633.11,430.337 1630.11,442.003 1626.5,453.5C 1619,472.511 1613,492.011 1608.5,512C 1610.96,531.884 1613.79,551.717 1617,571.5C 1617.28,572.416 1617.78,573.082 1618.5,573.5C 1618.81,575.226 1618.98,576.893 1619,578.5C 1614.43,580.57 1610.27,583.237 1606.5,586.5C 1607.26,577.181 1606.43,567.848 1604,558.5C 1603.69,557.692 1603.19,557.025 1602.5,556.5C 1601.75,562.121 1601.75,567.621 1602.5,573C 1605.04,578.819 1604.04,583.985 1599.5,588.5C 1599.69,589.584 1600.02,590.584 1600.5,591.5C 1598.24,592.219 1595.9,592.552 1593.5,592.5C 1592.5,592.5 1591.5,592.5 1590.5,592.5C 1596.74,582.858 1598.08,572.525 1594.5,561.5C 1594.75,559.173 1594.09,557.173 1592.5,555.5C 1591.52,558.086 1591.19,560.753 1591.5,563.5C 1592.01,566.389 1592.67,569.222 1593.5,572C 1592.72,574.74 1592.22,577.574 1592,580.5C 1590.34,584.303 1588.51,587.97 1586.5,591.5C 1585.17,590.833 1583.83,590.167 1582.5,589.5C 1584.18,576.712 1583.51,564.046 1580.5,551.5C 1579.91,551.709 1579.41,552.043 1579,552.5C 1579,559.344 1579.5,566.178 1580.5,573C 1580.07,578.869 1579.4,584.702 1578.5,590.5C 1575.23,595.27 1570.89,598.77 1565.5,601C 1559.31,601.965 1557.98,599.799 1561.5,594.5C 1564.99,592.5 1567.16,589.5 1568,585.5C 1568.67,579.071 1568.17,572.738 1566.5,566.5C 1567.79,559.203 1567.46,551.869 1565.5,544.5C 1564.01,545.348 1563.34,546.681 1563.5,548.5C 1564.04,554.458 1564.04,560.458 1563.5,566.5C 1558.06,572.438 1552.4,578.271 1546.5,584C 1544.65,585.128 1542.65,585.628 1540.5,585.5C 1540.34,584.127 1540.51,582.793 1541,581.5C 1544.36,578.124 1546.69,574.124 1548,569.5C 1550.14,556.581 1551.81,543.581 1553,530.5C 1558.03,522.758 1564.2,516.092 1571.5,510.5C 1573.3,498.024 1575.63,485.691 1578.5,473.5C 1579.58,465.788 1580.91,458.121 1582.5,450.5C 1583.55,446.574 1584.22,442.574 1584.5,438.5C 1587.25,435.227 1589.91,431.727 1592.5,428C 1596.64,426.428 1600.31,424.095 1603.5,421C 1601.24,419.133 1598.91,419.133 1596.5,421C 1593.31,423.963 1590.31,427.129 1587.5,430.5C 1586.83,425.167 1586.17,419.833 1585.5,414.5C 1585.31,404.97 1584.64,395.47 1583.5,386C 1583.83,383.833 1584.17,381.667 1584.5,379.5C 1599.47,377.039 1614.47,374.706 1629.5,372.5C 1629.23,374.099 1629.57,375.432 1630.5,376.5 Z"/></g>
<g><path style="opacity:1" fill="#4e4e62" d="M 1035.5,400.5 C 1035.63,399.761 1035.46,399.094 1035,398.5C 1034.33,399.252 1033.5,399.586 1032.5,399.5C 1033.29,395.633 1035.13,392.299 1038,389.5C 1039.53,384.068 1041.36,378.735 1043.5,373.5C 1042.38,362.657 1041.05,351.323 1039.5,339.5C 1040.5,339.5 1041.5,339.5 1042.5,339.5C 1043.73,345.092 1044.57,350.759 1045,356.5C 1046.63,372.434 1043.47,387.101 1035.5,400.5 Z"/></g>
<g><path style="opacity:1" fill="#4a495e" d="M 961.5,319.5 C 962.5,319.5 963.5,319.5 964.5,319.5C 963.637,334.404 961.304,349.071 957.5,363.5C 950.615,378.851 943.948,394.185 937.5,409.5C 948.093,412.582 958.426,416.416 968.5,421C 971.681,423.924 975.348,425.757 979.5,426.5C 979.5,427.833 979.5,429.167 979.5,430.5C 972.502,427.668 965.502,424.834 958.5,422C 947.639,416.21 936.139,411.71 924,408.5C 923.055,408.095 922.388,407.428 922,406.5C 921.692,407.308 921.192,407.975 920.5,408.5C 914.228,406.972 908.561,404.306 903.5,400.5C 903.833,399.5 904.5,398.833 905.5,398.5C 914.565,403.706 924.231,406.373 934.5,406.5C 938.66,395.347 943.993,384.847 950.5,375C 950.043,374.586 949.709,374.086 949.5,373.5C 951.733,367.578 954.399,361.911 957.5,356.5C 958.327,344.473 959.66,332.14 961.5,319.5 Z"/></g>
<g><path style="opacity:1" fill="#45455b" d="M 1066.5,386.5 C 1067.46,386.953 1068.29,387.619 1069,388.5C 1071.76,393.078 1074.26,397.744 1076.5,402.5C 1080.06,410.317 1083.72,418.151 1087.5,426C 1087.17,426.333 1086.83,426.667 1086.5,427C 1089.04,429.351 1088.38,430.517 1084.5,430.5C 1082.57,424.737 1080.4,419.07 1078,413.5C 1074.79,406.614 1071.12,399.947 1067,393.5C 1065.58,391.157 1065.42,388.823 1066.5,386.5 Z"/></g>
<g><path style="opacity:0.999" fill="#f0bc92" d="M 1012.5,424.5 C 1013.12,424.611 1013.62,424.944 1014,425.5C 1015.8,429.709 1016.8,434.042 1017,438.5C 1015.3,437.594 1013.47,437.261 1011.5,437.5C 1007.19,435.097 1002.69,433.097 998,431.5C 996.699,432.098 995.865,433.098 995.5,434.5C 998.689,436.742 1001.86,439.075 1005,441.5C 1007.33,442.167 1009.67,442.833 1012,443.5C 1012.76,443.43 1013.26,443.097 1013.5,442.5C 1014.83,442.5 1016.17,442.5 1017.5,442.5C 1017.5,441.5 1017.5,440.5 1017.5,439.5C 1023.47,438.759 1029.47,438.425 1035.5,438.5C 1042.04,437.989 1048.38,438.822 1054.5,441C 1057.71,445.258 1061.05,449.425 1064.5,453.5C 1064.02,454.478 1063.36,455.311 1062.5,456C 1057.83,456.667 1053.17,457.333 1048.5,458C 1046.79,459.133 1046.29,460.633 1047,462.5C 1049.83,466.452 1051.33,470.785 1051.5,475.5C 1051.66,476.873 1051.49,478.207 1051,479.5C 1049.48,480.163 1048.31,481.163 1047.5,482.5C 1044.5,484.5 1041.5,486.5 1038.5,488.5C 1034.81,486.916 1030.98,486.582 1027,487.5C 1025.37,484.853 1023.04,483.186 1020,482.5C 1019.67,483.167 1019.33,483.833 1019,484.5C 1015.08,480.311 1010.25,478.144 1004.5,478C 1003.14,479.938 1003.47,481.604 1005.5,483C 1010.93,483.678 1015.59,485.845 1019.5,489.5C 1024.46,489.849 1028.79,491.515 1032.5,494.5C 1028.8,497.016 1024.8,499.016 1020.5,500.5C 1012.82,498.276 1005.49,495.276 998.5,491.5C 989.173,486.17 979.506,481.336 969.5,477C 966.572,473.743 965.738,469.909 967,465.5C 969.188,456.383 971.688,447.383 974.5,438.5C 978.978,435.19 983.311,431.69 987.5,428C 995.335,423.484 1003.67,422.318 1012.5,424.5 Z"/></g>
<g><path style="opacity:1" fill="#ac999a" d="M 1585.5,414.5 C 1586.17,419.833 1586.83,425.167 1587.5,430.5C 1587.17,431.5 1586.5,432.167 1585.5,432.5C 1585.5,426.5 1585.5,420.5 1585.5,414.5 Z"/></g>
<g><path style="opacity:1" fill="#444156" d="M 1584.5,438.5 C 1583.48,436.477 1583.81,434.477 1585.5,432.5C 1586.5,432.167 1587.17,431.5 1587.5,430.5C 1590.31,427.129 1593.31,423.963 1596.5,421C 1598.91,419.133 1601.24,419.133 1603.5,421C 1600.31,424.095 1596.64,426.428 1592.5,428C 1589.91,431.727 1587.25,435.227 1584.5,438.5 Z"/></g>
<g><path style="opacity:1" fill="#504959" d="M 1011.5,437.5 C 1010.05,438.825 1010.38,439.658 1012.5,440C 1008.9,440.974 1009.24,441.807 1013.5,442.5C 1013.26,443.097 1012.76,443.43 1012,443.5C 1009.67,442.833 1007.33,442.167 1005,441.5C 1001.86,439.075 998.689,436.742 995.5,434.5C 995.865,433.098 996.699,432.098 998,431.5C 1002.69,433.097 1007.19,435.097 1011.5,437.5 Z"/></g>
<g><path style="opacity:0.979" fill="#f3e8df" d="M 1618.5,573.5 C 1617.78,573.082 1617.28,572.416 1617,571.5C 1613.79,551.717 1610.96,531.884 1608.5,512C 1613,492.011 1619,472.511 1626.5,453.5C 1633.48,450.84 1640.48,448.173 1647.5,445.5C 1653.91,482.716 1659.58,520.049 1664.5,557.5C 1649.17,562.833 1633.83,568.167 1618.5,573.5 Z"/></g>
<g><path style="opacity:0.991" fill="#72678e" d="M 1444.5,445.5 C 1445.87,446.787 1447.7,447.453 1450,447.5C 1459.15,448.332 1468.31,448.666 1477.5,448.5C 1476.55,461.031 1476.22,473.197 1476.5,485C 1478.82,490.881 1482.66,492.381 1488,489.5C 1488.25,486.11 1488.75,482.777 1489.5,479.5C 1488.28,478.197 1488.62,477.197 1490.5,476.5C 1492.12,468.903 1493.46,461.236 1494.5,453.5C 1494.28,451.085 1492.95,450.085 1490.5,450.5C 1488.97,462.116 1486.97,473.616 1484.5,485C 1485.52,486.367 1485.02,487.2 1483,487.5C 1481.74,487.241 1480.74,486.574 1480,485.5C 1480.02,473.508 1480.19,461.508 1480.5,449.5C 1505.1,451.829 1529.77,452.829 1554.5,452.5C 1556.49,456.325 1559.49,458.992 1563.5,460.5C 1563.35,461.552 1563.52,462.552 1564,463.5C 1566.67,465.5 1569.33,467.5 1572,469.5C 1573.52,468.048 1573.68,466.548 1572.5,465C 1570.55,463.116 1568.22,461.782 1565.5,461C 1562.28,458.284 1559.62,455.117 1557.5,451.5C 1565.86,451.665 1574.2,451.332 1582.5,450.5C 1580.91,458.121 1579.58,465.788 1578.5,473.5C 1550.37,484.376 1522.37,495.542 1494.5,507C 1497.19,518.087 1499.69,529.254 1502,540.5C 1502.24,542.119 1503.07,543.119 1504.5,543.5C 1503.17,544.5 1503.17,545.5 1504.5,546.5C 1503.9,546.735 1503.57,547.235 1503.5,548C 1506.28,558.08 1508.62,568.246 1510.5,578.5C 1509.5,578.5 1508.5,578.5 1507.5,578.5C 1507.34,580.199 1507.51,581.866 1508,583.5C 1509.15,584.684 1510.31,584.684 1511.5,583.5C 1513.45,592.555 1515.62,601.555 1518,610.5C 1532.39,604.87 1546.89,599.536 1561.5,594.5C 1557.98,599.799 1559.31,601.965 1565.5,601C 1570.89,598.77 1575.23,595.27 1578.5,590.5C 1578.5,591.833 1578.5,593.167 1578.5,594.5C 1579.5,594.5 1580.5,594.5 1581.5,594.5C 1581.37,592.708 1581.7,591.042 1582.5,589.5C 1583.83,590.167 1585.17,590.833 1586.5,591.5C 1587.57,592.434 1588.9,592.768 1590.5,592.5C 1591.5,592.5 1592.5,592.5 1593.5,592.5C 1600.79,694.51 1608.45,796.51 1616.5,898.5C 1616.47,900.029 1615.8,901.196 1614.5,902C 1608.64,904.132 1602.64,905.632 1596.5,906.5C 1582.03,907.792 1567.7,909.126 1553.5,910.5C 1547.21,911.372 1540.88,911.705 1534.5,911.5C 1522.97,840.286 1512.14,768.953 1502,697.5C 1499.97,766.187 1497.8,834.854 1495.5,903.5C 1491.85,903.058 1488.18,902.724 1484.5,902.5C 1470.31,901.126 1455.97,899.793 1441.5,898.5C 1434.22,898.52 1427.06,897.854 1420,896.5C 1415.99,790.189 1414.99,683.856 1417,577.5C 1418.97,545.022 1423.97,513.022 1432,481.5C 1435.11,469.011 1439.27,457.011 1444.5,445.5 Z"/></g>
<g><path style="opacity:1" fill="#6c5e63" d="M 1012.5,451.5 C 1014.54,451.854 1016.37,451.854 1018,451.5C 1021.37,453.283 1024.54,455.283 1027.5,457.5C 1022.26,455.947 1017.26,453.947 1012.5,451.5 Z"/></g>
<g><path style="opacity:1" fill="#464255" d="M 1027.5,457.5 C 1024.54,455.283 1021.37,453.283 1018,451.5C 1016.37,451.854 1014.54,451.854 1012.5,451.5C 1011.44,449.888 1011.94,448.555 1014,447.5C 1023.24,450.095 1032.74,451.595 1042.5,452C 1044.1,453.066 1045.1,454.566 1045.5,456.5C 1039.61,458.815 1033.61,459.149 1027.5,457.5 Z"/></g>
<g><path style="opacity:1" fill="#3e3e58" d="M 1460.5,449.5 C 1461.76,449.461 1462.76,449.961 1463.5,451C 1461.55,453.326 1459.55,455.659 1457.5,458C 1452.78,460.134 1448.28,462.634 1444,465.5C 1442.23,466.233 1440.4,466.567 1438.5,466.5C 1439.53,463.286 1441.86,461.452 1445.5,461C 1450.84,457.425 1455.84,453.592 1460.5,449.5 Z"/></g>
<g><path style="opacity:1" fill="#585a72" d="M 687.5,456.5 C 662.833,456.5 638.167,456.5 613.5,456.5C 613.5,506.167 613.5,555.833 613.5,605.5C 638.167,605.5 662.833,605.5 687.5,605.5C 662.672,606.498 637.672,606.831 612.5,606.5C 612.5,556.167 612.5,505.833 612.5,455.5C 637.672,455.169 662.672,455.502 687.5,456.5 Z"/></g>
<g><path style="opacity:1" fill="#373850" d="M 687.5,456.5 C 687.5,469.167 687.5,481.833 687.5,494.5C 673.496,494.333 659.496,494.5 645.5,495C 640.049,499.754 640.383,504.087 646.5,508C 660.163,508.5 673.829,508.667 687.5,508.5C 687.5,540.833 687.5,573.167 687.5,605.5C 662.833,605.5 638.167,605.5 613.5,605.5C 613.5,555.833 613.5,506.167 613.5,456.5C 638.167,456.5 662.833,456.5 687.5,456.5 Z"/></g>
<g><path style="opacity:1" fill="#3c3c55" d="M 1557.5,451.5 C 1559.62,455.117 1562.28,458.284 1565.5,461C 1568.22,461.782 1570.55,463.116 1572.5,465C 1573.68,466.548 1573.52,468.048 1572,469.5C 1569.33,467.5 1566.67,465.5 1564,463.5C 1563.52,462.552 1563.35,461.552 1563.5,460.5C 1559.49,458.992 1556.49,456.325 1554.5,452.5C 1555.05,450.448 1556.05,450.115 1557.5,451.5 Z"/></g>
<g><path style="opacity:1" fill="#515064" d="M 867.5,453.5 C 877.569,458.533 887.903,463.033 898.5,467C 920.832,472.595 942.832,477.929 964.5,483C 965.337,484.011 965.67,485.178 965.5,486.5C 951.966,484.16 938.633,480.993 925.5,477C 924.874,476.25 924.374,475.416 924,474.5C 923.612,475.428 922.945,476.095 922,476.5C 914.756,475.531 908.09,473.198 902,469.5C 888.865,468.224 877.032,463.39 866.5,455C 867.056,454.617 867.389,454.117 867.5,453.5 Z"/></g>
<g><path style="opacity:1" fill="#474255" d="M 1010.5,464.5 C 1019.93,464.823 1029.1,466.489 1038,469.5C 1041.36,468.953 1044.86,468.953 1048.5,469.5C 1048.42,470.93 1048.75,472.264 1049.5,473.5C 1046.52,475.037 1043.36,476.037 1040,476.5C 1036.63,475.187 1033.13,474.354 1029.5,474C 1024.02,470.75 1017.69,468.916 1010.5,468.5C 1010.5,467.167 1010.5,465.833 1010.5,464.5 Z"/></g>
<g><path style="opacity:1" fill="#f2e7df" d="M 1578.5,473.5 C 1575.63,485.691 1573.3,498.024 1571.5,510.5C 1564.2,516.092 1558.03,522.758 1553,530.5C 1551.81,543.581 1550.14,556.581 1548,569.5C 1546.69,574.124 1544.36,578.124 1541,581.5C 1540.51,582.793 1540.34,584.127 1540.5,585.5C 1542.65,585.628 1544.65,585.128 1546.5,584C 1552.4,578.271 1558.06,572.438 1563.5,566.5C 1564.5,566.5 1565.5,566.5 1566.5,566.5C 1568.17,572.738 1568.67,579.071 1568,585.5C 1567.16,589.5 1564.99,592.5 1561.5,594.5C 1546.89,599.536 1532.39,604.87 1518,610.5C 1515.62,601.555 1513.45,592.555 1511.5,583.5C 1516.34,581.055 1521.17,578.388 1526,575.5C 1525.66,570.463 1524.83,565.463 1523.5,560.5C 1523.67,559.508 1523.34,558.842 1522.5,558.5C 1521.01,552.201 1519.68,545.868 1518.5,539.5C 1514.06,541.423 1509.39,542.756 1504.5,543.5C 1503.07,543.119 1502.24,542.119 1502,540.5C 1499.69,529.254 1497.19,518.087 1494.5,507C 1522.37,495.542 1550.37,484.376 1578.5,473.5 Z"/></g>
<g><path style="opacity:1" fill="#3d3d57" d="M 1477.5,448.5 C 1478.79,448.263 1479.79,448.596 1480.5,449.5C 1480.19,461.508 1480.02,473.508 1480,485.5C 1480.74,486.574 1481.74,487.241 1483,487.5C 1485.02,487.2 1485.52,486.367 1484.5,485C 1486.97,473.616 1488.97,462.116 1490.5,450.5C 1492.95,450.085 1494.28,451.085 1494.5,453.5C 1493.46,461.236 1492.12,468.903 1490.5,476.5C 1488.62,477.197 1488.28,478.197 1489.5,479.5C 1488.75,482.777 1488.25,486.11 1488,489.5C 1482.66,492.381 1478.82,490.881 1476.5,485C 1476.22,473.197 1476.55,461.031 1477.5,448.5 Z"/></g>
<g><path style="opacity:1" fill="#4b4557" d="M 1038.5,488.5 C 1036.3,488.565 1034.3,489.232 1032.5,490.5C 1034.88,492.105 1034.88,493.438 1032.5,494.5C 1028.79,491.515 1024.46,489.849 1019.5,489.5C 1015.59,485.845 1010.93,483.678 1005.5,483C 1003.47,481.604 1003.14,479.938 1004.5,478C 1010.25,478.144 1015.08,480.311 1019,484.5C 1019.33,483.833 1019.67,483.167 1020,482.5C 1023.04,483.186 1025.37,484.853 1027,487.5C 1030.98,486.582 1034.81,486.916 1038.5,488.5 Z"/></g>
<g><path style="opacity:0.979" fill="#72678e" d="M 1048.5,490.5 C 1050.92,490.192 1053.26,490.526 1055.5,491.5C 1069.69,516.556 1080.85,542.889 1089,570.5C 1094.12,603.602 1091.12,635.936 1080,667.5C 1077.95,673.103 1074.79,677.936 1070.5,682C 1063.41,684.622 1056.07,686.122 1048.5,686.5C 1051.93,656.756 1054.26,626.922 1055.5,597C 1054.16,561.428 1051.83,525.928 1048.5,490.5 Z"/></g>
<g><path style="opacity:0.999" fill="#74698f" d="M 998.5,491.5 C 1005.49,495.276 1012.82,498.276 1020.5,500.5C 1024.8,499.016 1028.8,497.016 1032.5,494.5C 1032.5,496.833 1032.5,499.167 1032.5,501.5C 1013.83,501.207 995.001,501.874 976,503.5C 962.828,502.51 949.495,502.177 936,502.5C 933.425,502.09 931.758,503.09 931,505.5C 929.991,504.342 928.658,503.675 927,503.5C 902.986,503.815 878.819,504.149 854.5,504.5C 853.761,500.985 853.761,497.652 854.5,494.5C 856.167,494.5 857.833,494.5 859.5,494.5C 905.83,493.385 952.163,492.385 998.5,491.5 Z"/></g>
<g><path style="opacity:1" fill="#72678e" d="M 687.5,494.5 C 693.833,494.5 700.167,494.5 706.5,494.5C 707.833,494.5 709.167,494.5 710.5,494.5C 716.842,494.334 723.175,494.5 729.5,495C 733.689,499.678 733.356,504.011 728.5,508C 722.319,508.172 716.319,508.672 710.5,509.5C 709.292,508.766 707.959,508.433 706.5,508.5C 700.167,508.5 693.833,508.5 687.5,508.5C 673.829,508.667 660.163,508.5 646.5,508C 640.383,504.087 640.049,499.754 645.5,495C 659.496,494.5 673.496,494.333 687.5,494.5 Z"/></g>
<g><path style="opacity:0.991" fill="#72678e" d="M 834.5,494.5 C 832.997,497.994 833.33,501.328 835.5,504.5C 825.833,505.167 816.167,505.833 806.5,506.5C 806.709,507.086 807.043,507.586 807.5,508C 817.639,507.972 827.639,508.138 837.5,508.5C 847.679,540.897 853.679,574.064 855.5,608C 854.273,637.187 850.606,666.02 844.5,694.5C 832.136,694.248 819.803,694.582 807.5,695.5C 809.529,685.05 812.029,674.717 815,664.5C 815.266,658.403 816.099,652.403 817.5,646.5C 817.285,634.549 817.118,622.549 817,610.5C 816.667,608.167 816.333,605.833 816,603.5C 815.5,602.333 814.667,601.5 813.5,601C 814.624,600.161 815.291,598.994 815.5,597.5C 813.908,582.216 811.408,566.883 808,551.5C 805.195,541.549 802.528,530.882 800,519.5C 797.889,511.95 793.389,506.283 786.5,502.5C 785.833,502.833 785.167,503.167 784.5,503.5C 788.617,506.553 792.284,510.053 795.5,514C 795.043,514.414 794.709,514.914 794.5,515.5C 797.014,522.666 799.014,529.666 800.5,536.5C 803.084,546.836 805.584,556.836 808,566.5C 808.958,571.123 809.625,575.79 810,580.5C 810.654,579.304 811.154,579.304 811.5,580.5C 810.905,582.44 810.572,584.44 810.5,586.5C 815.877,618.205 814.71,649.872 807,681.5C 805.632,686.453 803.799,691.12 801.5,695.5C 796.57,695.803 791.737,695.469 787,694.5C 762.261,645.989 755.261,594.989 766,541.5C 767.468,528.957 770.802,516.957 776,505.5C 781.636,498.062 789.136,494.895 798.5,496C 810.525,495.749 822.525,495.249 834.5,494.5 Z"/></g>
<g><path style="opacity:1" fill="#4b4a5f" d="M 1522.5,558.5 C 1522.19,559.738 1521.69,559.738 1521,558.5C 1520.24,556.685 1519.41,555.019 1518.5,553.5C 1517.06,550.289 1515.9,546.955 1515,543.5C 1511.67,545.042 1508.17,546.042 1504.5,546.5C 1503.17,545.5 1503.17,544.5 1504.5,543.5C 1509.39,542.756 1514.06,541.423 1518.5,539.5C 1519.68,545.868 1521.01,552.201 1522.5,558.5 Z"/></g>
<g><path style="opacity:1" fill="#70658c" d="M 649.5,542.5 C 656.559,543.427 659.059,547.427 657,554.5C 653.522,559.719 650.189,559.719 647,554.5C 645.888,550.019 646.721,546.019 649.5,542.5 Z"/></g>
<g><path style="opacity:1" fill="#eee4dc" d="M 1518.5,553.5 C 1519.37,557.082 1520.04,560.415 1520.5,563.5C 1521.27,566.096 1521.6,568.763 1521.5,571.5C 1525.1,571.262 1525.43,572.262 1522.5,574.5C 1518.47,575.838 1514.47,577.172 1510.5,578.5C 1508.62,568.246 1506.28,558.08 1503.5,548C 1503.57,547.235 1503.9,546.735 1504.5,546.5C 1508.17,546.042 1511.67,545.042 1515,543.5C 1515.9,546.955 1517.06,550.289 1518.5,553.5 Z"/></g>
<g><path style="opacity:1" fill="#464256" d="M 1566.5,566.5 C 1565.5,566.5 1564.5,566.5 1563.5,566.5C 1564.04,560.458 1564.04,554.458 1563.5,548.5C 1563.34,546.681 1564.01,545.348 1565.5,544.5C 1567.46,551.869 1567.79,559.203 1566.5,566.5 Z"/></g>
<g><path style="opacity:1" fill="#424054" d="M 1594.5,561.5 C 1594.65,562.552 1594.48,563.552 1594,564.5C 1593.33,563.748 1592.5,563.414 1591.5,563.5C 1591.19,560.753 1591.52,558.086 1592.5,555.5C 1594.09,557.173 1594.75,559.173 1594.5,561.5 Z"/></g>
<g><path style="opacity:1" fill="#767381" d="M 1518.5,553.5 C 1519.41,555.019 1520.24,556.685 1521,558.5C 1521.69,559.738 1522.19,559.738 1522.5,558.5C 1523.34,558.842 1523.67,559.508 1523.5,560.5C 1522.1,561.1 1521.1,562.1 1520.5,563.5C 1520.04,560.415 1519.37,557.082 1518.5,553.5 Z"/></g>
<g><path style="opacity:1" fill="#44445a" d="M 1523.5,560.5 C 1524.83,565.463 1525.66,570.463 1526,575.5C 1521.17,578.388 1516.34,581.055 1511.5,583.5C 1510.31,584.684 1509.15,584.684 1508,583.5C 1507.51,581.866 1507.34,580.199 1507.5,578.5C 1508.5,578.5 1509.5,578.5 1510.5,578.5C 1514.47,577.172 1518.47,575.838 1522.5,574.5C 1525.43,572.262 1525.1,571.262 1521.5,571.5C 1521.6,568.763 1521.27,566.096 1520.5,563.5C 1521.1,562.1 1522.1,561.1 1523.5,560.5 Z"/></g>
<g><path style="opacity:1" fill="#544c5a" d="M 1594.5,561.5 C 1598.08,572.525 1596.74,582.858 1590.5,592.5C 1588.9,592.768 1587.57,592.434 1586.5,591.5C 1588.51,587.97 1590.34,584.303 1592,580.5C 1592.22,577.574 1592.72,574.74 1593.5,572C 1592.67,569.222 1592.01,566.389 1591.5,563.5C 1592.5,563.414 1593.33,563.748 1594,564.5C 1594.48,563.552 1594.65,562.552 1594.5,561.5 Z"/></g>
<g><path style="opacity:1" fill="#696a84" d="M 291.5,566.5 C 292.626,575.991 292.626,585.325 291.5,594.5C 291.524,588.006 291.357,581.34 291,574.5C 290.111,575.888 289.611,575.722 289.5,574C 290.692,571.945 290.692,569.945 289.5,568C 290.044,567.283 290.711,566.783 291.5,566.5 Z"/></g>
<g><path style="opacity:1" fill="#484456" d="M 1582.5,589.5 C 1581.7,591.042 1581.37,592.708 1581.5,594.5C 1580.5,594.5 1579.5,594.5 1578.5,594.5C 1578.5,593.167 1578.5,591.833 1578.5,590.5C 1579.4,584.702 1580.07,578.869 1580.5,573C 1579.5,566.178 1579,559.344 1579,552.5C 1579.41,552.043 1579.91,551.709 1580.5,551.5C 1583.51,564.046 1584.18,576.712 1582.5,589.5 Z"/></g>
<g><path style="opacity:1" fill="#3d3c56" d="M 1077.5,579.5 C 1082.12,578.408 1083.96,580.075 1083,584.5C 1082.75,583.376 1082.25,582.376 1081.5,581.5C 1080.49,581.938 1080.49,582.604 1081.5,583.5C 1080,583.833 1078.5,584.167 1077,584.5C 1070.56,584.073 1064.06,584.073 1057.5,584.5C 1057.5,583.5 1057.5,582.5 1057.5,581.5C 1062.9,581.215 1068.23,581.549 1073.5,582.5C 1074.9,581.479 1076.23,580.479 1077.5,579.5 Z"/></g>
<g><path style="opacity:1" fill="#504959" d="M 1606.5,586.5 C 1605.11,588.874 1603.11,590.541 1600.5,591.5C 1600.02,590.584 1599.69,589.584 1599.5,588.5C 1604.04,583.985 1605.04,578.819 1602.5,573C 1601.75,567.621 1601.75,562.121 1602.5,556.5C 1603.19,557.025 1603.69,557.692 1604,558.5C 1606.43,567.848 1607.26,577.181 1606.5,586.5 Z"/></g>
<g><path style="opacity:1" fill="#3e3e58" d="M 895.5,591.5 C 895.5,590.5 895.5,589.5 895.5,588.5C 941.303,585.62 986.969,583.453 1032.5,582C 1033.34,583.011 1033.67,584.178 1033.5,585.5C 1003.76,586.944 974.09,588.278 944.5,589.5C 935.611,589.387 926.778,589.053 918,588.5C 915.794,589.352 913.627,590.352 911.5,591.5C 906.511,590.905 901.178,590.905 895.5,591.5 Z"/></g>
<g><path style="opacity:1" fill="#72678e" d="M 895.5,591.5 C 901.178,590.905 906.511,590.905 911.5,591.5C 913.627,590.352 915.794,589.352 918,588.5C 926.778,589.053 935.611,589.387 944.5,589.5C 974.09,588.278 1003.76,586.944 1033.5,585.5C 1033.67,584.178 1033.34,583.011 1032.5,582C 986.969,583.453 941.303,585.62 895.5,588.5C 887.912,588.417 880.245,588.75 872.5,589.5C 871.903,581.483 871.069,573.483 870,565.5C 865.5,546.499 861,527.499 856.5,508.5C 863.462,508.684 870.295,508.018 877,506.5C 885.921,506.539 894.754,506.873 903.5,507.5C 904.216,506.689 905.05,506.022 906,505.5C 910.446,506.492 914.946,507.159 919.5,507.5C 930.012,507.272 940.345,506.272 950.5,504.5C 952.833,505.833 955.167,505.833 957.5,504.5C 958.941,505.304 960.441,505.971 962,506.5C 970.671,506.58 979.505,506.414 988.5,506C 989,505.5 989.5,505 990,504.5C 1004.42,505.49 1018.92,505.824 1033.5,505.5C 1034.54,536.159 1034.7,566.826 1034,597.5C 1031.41,627.237 1028.24,656.904 1024.5,686.5C 1013.87,687.925 1000.54,689.091 984.5,690C 945.652,690.938 906.819,692.105 868,693.5C 866.833,693.167 865.667,692.833 864.5,692.5C 871.095,659.507 874.095,626.174 873.5,592.5C 877.1,592.206 880.6,591.54 884,590.5C 885.009,591.658 886.342,592.325 888,592.5C 890.498,592.083 892.998,591.749 895.5,591.5 Z"/></g>
<g><path style="opacity:1" fill="#3e3d57" d="M 837.5,590.5 C 842.289,590.878 847.289,591.212 852.5,591.5C 852.5,592.833 852.5,594.167 852.5,595.5C 845.431,595.554 838.431,594.888 831.5,593.5C 827.295,595.523 822.961,595.856 818.5,594.5C 819.025,593.808 819.692,593.308 820.5,593C 826.384,592.685 832.051,591.851 837.5,590.5 Z"/></g>
<g><path style="opacity:1" fill="#f1e7df" d="M 980.5,615.5 C 986.833,615.5 993.167,615.5 999.5,615.5C 1001.07,624.848 1000.4,634.015 997.5,643C 970.169,644.611 942.836,646.111 915.5,647.5C 915.5,637.833 915.5,628.167 915.5,618.5C 937.343,617.945 959.009,616.945 980.5,615.5 Z"/></g>
<g><path style="opacity:1" fill="#404159" d="M 706.5,508.5 C 707.959,508.433 709.292,508.766 710.5,509.5C 710.16,586.142 709.826,662.976 709.5,740C 711.355,752.302 711.355,764.802 709.5,777.5C 709.895,787.636 709.895,797.636 709.5,807.5C 708.5,807.5 707.5,807.5 706.5,807.5C 706.667,799.059 706.334,790.893 705.5,783C 706.424,774.991 707.424,767.157 708.5,759.5C 707.329,751.775 706.662,744.108 706.5,736.5C 707.693,730.727 708.36,725.393 708.5,720.5C 707.878,717.63 707.211,714.796 706.5,712C 706.509,698.681 706.509,685.347 706.5,672C 706.773,669.849 707.439,667.849 708.5,666C 706.792,653.893 705.792,641.56 705.5,629C 706.18,624.523 706.68,620.023 707,615.5C 707.374,614.584 707.874,613.75 708.5,613C 707.201,609.865 707.201,606.699 708.5,603.5C 707.415,602.216 706.748,600.716 706.5,599C 707.027,593.054 707.027,586.888 706.5,580.5C 706.725,577.206 707.392,574.039 708.5,571C 708.081,566.962 708.081,562.962 708.5,559C 707.877,553.288 707.21,547.621 706.5,542C 706.795,530.898 706.795,519.731 706.5,508.5 Z"/></g>
<g><path style="opacity:1" fill="#3d3d56" d="M 1454.5,501.5 C 1462.74,505.573 1469.24,511.573 1474,519.5C 1476.53,524.762 1478.86,530.095 1481,535.5C 1484.88,564.346 1488.71,593.179 1492.5,622C 1492.36,622.772 1492.02,623.439 1491.5,624C 1493.65,637.573 1496.31,650.907 1499.5,664C 1499.49,667.65 1499.49,671.316 1499.5,675C 1503.02,679.216 1503.19,683.383 1500,687.5C 1495.79,671.433 1492.45,655.099 1490,638.5C 1488.61,618.995 1486.11,599.662 1482.5,580.5C 1482.83,575.833 1483.17,571.167 1483.5,566.5C 1481.58,561.518 1480.25,556.352 1479.5,551C 1480.17,550.333 1480.83,549.667 1481.5,549C 1478.2,539.009 1474.37,529.176 1470,519.5C 1467.42,517.345 1465.59,514.679 1464.5,511.5C 1461.81,508.711 1458.81,506.378 1455.5,504.5C 1454.61,503.675 1454.28,502.675 1454.5,501.5 Z"/></g>
<g><path style="opacity:0.963" fill="#3d3d56" d="M 807.5,695.5 C 805.081,700.685 803.081,700.685 801.5,695.5C 803.799,691.12 805.632,686.453 807,681.5C 814.71,649.872 815.877,618.205 810.5,586.5C 810.572,584.44 810.905,582.44 811.5,580.5C 811.154,579.304 810.654,579.304 810,580.5C 809.625,575.79 808.958,571.123 808,566.5C 805.584,556.836 803.084,546.836 800.5,536.5C 799.014,529.666 797.014,522.666 794.5,515.5C 794.709,514.914 795.043,514.414 795.5,514C 792.284,510.053 788.617,506.553 784.5,503.5C 785.167,503.167 785.833,502.833 786.5,502.5C 793.389,506.283 797.889,511.95 800,519.5C 802.528,530.882 805.195,541.549 808,551.5C 811.408,566.883 813.908,582.216 815.5,597.5C 815.291,598.994 814.624,600.161 813.5,601C 814.667,601.5 815.5,602.333 816,603.5C 816.333,605.833 816.667,608.167 817,610.5C 817.118,622.549 817.285,634.549 817.5,646.5C 816.099,652.403 815.266,658.403 815,664.5C 812.029,674.717 809.529,685.05 807.5,695.5 Z"/></g>
<g><path style="opacity:0.994" fill="#72678e" d="M 744.5,806.5 C 761.167,806.5 777.833,806.5 794.5,806.5C 794.5,887.5 794.5,968.5 794.5,1049.5C 688.166,1049.67 581.833,1049.5 475.5,1049C 474.511,1035.91 474.177,1022.75 474.5,1009.5C 475.494,1000.01 475.827,990.348 475.5,980.5C 475.5,978.833 475.5,977.167 475.5,975.5C 475.5,919.5 475.5,863.5 475.5,807.5C 552.5,807.5 629.5,807.5 706.5,807.5C 707.5,807.5 708.5,807.5 709.5,807.5C 721.345,807.828 733.012,807.495 744.5,806.5 Z"/></g>
<g><path style="opacity:1" fill="#404159" d="M 289.5,785.5 C 291.357,787.261 292.357,789.594 292.5,792.5C 292.471,794.029 291.804,795.196 290.5,796C 290.073,800.192 290.74,804.359 292.5,808.5C 292.468,829.325 292.301,850.325 292,871.5C 291.5,872.5 291,873.5 290.5,874.5C 291.823,884.03 291.823,893.53 290.5,903C 293.16,906.981 293.16,910.981 290.5,915C 291.078,922.933 291.078,930.933 290.5,939C 292.696,945.515 292.696,951.849 290.5,958C 291,958.5 291.5,959 292,959.5C 291.937,964.37 292.103,968.87 292.5,973C 291.722,975.39 290.555,977.557 289,979.5C 288.258,947.812 287.758,916.145 287.5,884.5C 288.192,862.35 288.859,840.35 289.5,818.5C 288.784,810.692 288.117,802.859 287.5,795C 288.011,791.757 288.678,788.591 289.5,785.5 Z"/></g>
<g><path style="opacity:1" fill="#373850" d="M 742.5,898.5 C 738.03,899.486 733.363,899.819 728.5,899.5C 728.5,914.833 728.5,930.167 728.5,945.5C 719.5,945.5 710.5,945.5 701.5,945.5C 701.5,930.167 701.5,914.833 701.5,899.5C 696.786,899.827 692.12,899.493 687.5,898.5C 696.47,884.365 705.637,870.365 715,856.5C 724.389,870.383 733.556,884.383 742.5,898.5 Z"/></g>
<g><path style="opacity:1" fill="#403f59" d="M 1422.5,857.5 C 1436.09,859.61 1449.59,861.943 1463,864.5C 1463.72,863.941 1464.56,863.608 1465.5,863.5C 1474.03,864.859 1482.53,866.192 1491,867.5C 1494.15,865.839 1495.65,866.839 1495.5,870.5C 1488.8,870.452 1482.14,869.952 1475.5,869C 1471.96,868.813 1468.79,867.646 1466,865.5C 1465.48,866.516 1464.65,867.182 1463.5,867.5C 1450.15,865.107 1436.48,862.774 1422.5,860.5C 1422.5,859.5 1422.5,858.5 1422.5,857.5 Z"/></g>
<g><path style="opacity:1" fill="#41405a" d="M 1608.5,869.5 C 1610.91,869.694 1611.91,871.027 1611.5,873.5C 1604.13,873.947 1596.79,874.613 1589.5,875.5C 1569.9,875.018 1550.23,874.351 1530.5,873.5C 1530.5,872.5 1530.5,871.5 1530.5,870.5C 1556.26,871.352 1581.76,871.685 1607,871.5C 1607.72,870.956 1608.22,870.289 1608.5,869.5 Z"/></g>
<g><path style="opacity:1" fill="#d3cbc8" d="M 1036.5,874.5 C 1040.34,874.696 1044.18,874.696 1048,874.5C 1050.34,875.007 1050.84,876.174 1049.5,878C 1042.47,878.779 1035.47,879.613 1028.5,880.5C 1013.73,880.933 998.725,880.933 983.5,880.5C 983.5,879.5 983.5,878.5 983.5,877.5C 996.715,877.686 1009.88,877.02 1023,875.5C 1027.68,876.421 1032.18,876.088 1036.5,874.5 Z"/></g>
<g><path style="opacity:0.983" fill="#383850" d="M 854.5,888.5 C 858.755,889.814 863.088,890.981 867.5,892C 881.825,893.481 895.992,895.314 910,897.5C 910.772,897.355 911.439,897.022 912,896.5C 914.667,897.167 917.333,897.833 920,898.5C 930.066,898.761 940.233,898.427 950.5,897.5C 950.459,909.876 950.459,922.043 950.5,934C 942.881,933.56 935.214,933.06 927.5,932.5C 911.04,930.423 894.374,929.09 877.5,928.5C 869.868,927.558 862.201,926.892 854.5,926.5C 854.5,913.833 854.5,901.167 854.5,888.5 Z"/></g>
<g><path style="opacity:1" fill="#d7cfcb" d="M 951.5,894.5 C 951.737,895.791 951.404,896.791 950.5,897.5C 940.233,898.427 930.066,898.761 920,898.5C 917.333,897.833 914.667,897.167 912,896.5C 911.439,897.022 910.772,897.355 910,897.5C 895.992,895.314 881.825,893.481 867.5,892C 863.088,890.981 858.755,889.814 854.5,888.5C 854.5,887.833 854.5,887.167 854.5,886.5C 855.117,886.389 855.617,886.056 856,885.5C 861.652,887.584 867.485,889.084 873.5,890C 885.11,891.076 896.61,892.576 908,894.5C 922.594,895.63 937.094,895.63 951.5,894.5 Z"/></g>
<g><path style="opacity:0.978" fill="#f1bd92" d="M 1441.5,898.5 C 1455.97,899.793 1470.31,901.126 1484.5,902.5C 1483.75,915.526 1482.75,928.526 1481.5,941.5C 1475.76,945.245 1469.43,947.078 1462.5,947C 1459.51,940.024 1455.51,933.691 1450.5,928C 1448.09,926.293 1445.42,925.46 1442.5,925.5C 1441.65,916.528 1441.32,907.528 1441.5,898.5 Z"/></g>
<g><path style="opacity:1" fill="#5c5677" d="M 742.5,898.5 C 743.043,898.56 743.376,898.893 743.5,899.5C 738.88,900.493 734.214,900.827 729.5,900.5C 729.829,915.676 729.496,930.676 728.5,945.5C 728.5,930.167 728.5,914.833 728.5,899.5C 733.363,899.819 738.03,899.486 742.5,898.5 Z"/></g>
<g><path style="opacity:0.975" fill="#f1bc92" d="M 1596.5,906.5 C 1598.05,918.469 1599.39,930.469 1600.5,942.5C 1598.78,946.626 1595.61,948.96 1591,949.5C 1586.07,948.669 1583.73,945.669 1584,940.5C 1582.46,938.622 1580.62,937.122 1578.5,936C 1570.94,933.539 1563.27,933.039 1555.5,934.5C 1554.76,926.507 1554.09,918.507 1553.5,910.5C 1567.7,909.126 1582.03,907.792 1596.5,906.5 Z"/></g>
<g><path style="opacity:0.971" fill="#f2bd92" d="M 1037.5,908.5 C 1037.5,920.5 1037.5,932.5 1037.5,944.5C 1031.16,945.024 1028.99,948.357 1031,954.5C 1035.95,966.888 1031.78,971.055 1018.5,967C 1012.97,964.074 1007.64,960.907 1002.5,957.5C 1000.31,942.524 998.313,927.524 996.5,912.5C 1010.1,911.973 1023.77,910.64 1037.5,908.5 Z"/></g>
<g><path style="opacity:0.987" fill="#373850" d="M 1442.5,925.5 C 1445.42,925.46 1448.09,926.293 1450.5,928C 1455.51,933.691 1459.51,940.024 1462.5,947C 1469.43,947.078 1475.76,945.245 1481.5,941.5C 1483.17,941.5 1484.83,941.5 1486.5,941.5C 1488.71,960.119 1489.04,978.786 1487.5,997.5C 1487.5,998.5 1487.5,999.5 1487.5,1000.5C 1441.74,1003.98 1396.07,1008.31 1350.5,1013.5C 1349.83,1011.37 1349.16,1009.37 1348.5,1007.5C 1348.33,999.826 1348.5,992.159 1349,984.5C 1352.07,977.529 1357.23,972.696 1364.5,970C 1377.71,966.627 1390.71,962.627 1403.5,958C 1417.34,949.504 1429.34,938.837 1439.5,926C 1440.45,925.517 1441.45,925.351 1442.5,925.5 Z"/></g>
<g><path style="opacity:0.981" fill="#f2bd93" d="M 877.5,928.5 C 894.374,929.09 911.04,930.423 927.5,932.5C 926.95,943.177 926.284,953.843 925.5,964.5C 922.059,964.301 918.726,964.801 915.5,966C 912.032,969.26 909.032,972.926 906.5,977C 903.5,977.667 900.5,977.667 897.5,977C 892.616,974.727 887.949,972.227 883.5,969.5C 881.681,955.768 879.681,942.101 877.5,928.5 Z"/></g>
<g><path style="opacity:0.99" fill="#373850" d="M 1600.5,942.5 C 1602.9,942.393 1604.74,943.393 1606,945.5C 1612.83,961.151 1617,977.485 1618.5,994.5C 1612.46,1000.7 1605.79,1006.2 1598.5,1011C 1583.67,1020.92 1568.67,1030.58 1553.5,1040C 1546.72,1041.06 1539.89,1041.56 1533,1041.5C 1518.48,1041.08 1503.98,1040.42 1489.5,1039.5C 1489.77,1037.9 1489.43,1036.57 1488.5,1035.5C 1488.5,1030.5 1488.5,1025.5 1488.5,1020.5C 1489.44,1015.93 1489.77,1011.26 1489.5,1006.5C 1500.35,996.978 1512.02,988.644 1524.5,981.5C 1536.69,979.566 1546.19,983.566 1553,993.5C 1553.83,992.667 1554.67,991.833 1555.5,991C 1549.16,981.06 1540.16,976.56 1528.5,977.5C 1532.12,974.278 1535.29,970.612 1538,966.5C 1542.82,957.854 1546.82,948.854 1550,939.5C 1551.73,937.598 1553.56,935.931 1555.5,934.5C 1563.27,933.039 1570.94,933.539 1578.5,936C 1580.62,937.122 1582.46,938.622 1584,940.5C 1583.73,945.669 1586.07,948.669 1591,949.5C 1595.61,948.96 1598.78,946.626 1600.5,942.5 Z"/></g>
<g><path style="opacity:0.988" fill="#f2e8df" d="M 1037.5,944.5 C 1044.18,946.257 1049.01,950.257 1052,956.5C 1054.2,959.04 1056.7,961.207 1059.5,963C 1076.34,970.391 1093.34,977.391 1110.5,984C 1118.01,991.382 1120.68,1000.22 1118.5,1010.5C 1117.41,1014.52 1115.41,1018.02 1112.5,1021C 1106.56,1022.07 1100.56,1022.57 1094.5,1022.5C 1075.78,1021.63 1057.12,1020.13 1038.5,1018C 1026.83,1017.67 1015.17,1017.33 1003.5,1017C 998.155,1016.16 993.488,1013.99 989.5,1010.5C 988.972,993.698 991.472,977.365 997,961.5C 997.875,958.785 999.708,957.452 1002.5,957.5C 1007.64,960.907 1012.97,964.074 1018.5,967C 1031.78,971.055 1035.95,966.888 1031,954.5C 1028.99,948.357 1031.16,945.024 1037.5,944.5 Z"/></g>
<g><path style="opacity:1" fill="#f2e8df" d="M 657.5,964.5 C 691.833,964.5 726.167,964.5 760.5,964.5C 760.5,978.5 760.5,992.5 760.5,1006.5C 726.167,1006.5 691.833,1006.5 657.5,1006.5C 657.5,992.5 657.5,978.5 657.5,964.5 Z"/></g>
<g><path style="opacity:1" fill="#9f94ab" d="M 657.5,964.5 C 691.996,963.502 726.663,963.168 761.5,963.5C 761.829,978.01 761.496,992.343 760.5,1006.5C 760.5,992.5 760.5,978.5 760.5,964.5C 726.167,964.5 691.833,964.5 657.5,964.5 Z"/></g>
<g><path style="opacity:0.99" fill="#f2e8df" d="M 925.5,964.5 C 931.275,963.775 936.608,964.941 941.5,968C 943.719,972.275 946.052,976.441 948.5,980.5C 938.046,981.899 929.38,986.732 922.5,995C 924.059,996.756 925.726,996.756 927.5,995C 930.05,992.451 932.217,989.618 934,986.5C 934.667,987.167 935.333,987.833 936,988.5C 941.372,986.593 946.872,985.259 952.5,984.5C 964.372,996.762 977.039,1008.09 990.5,1018.5C 992.214,1021.21 994.547,1023.21 997.5,1024.5C 1001.16,1029 1005.33,1033 1010,1036.5C 1012.1,1039.11 1012.94,1042.11 1012.5,1045.5C 1008.89,1053.27 1002.89,1058.44 994.5,1061C 986.564,1062.53 978.564,1062.86 970.5,1062C 945.334,1057.06 921.334,1048.72 898.5,1037C 890.882,1035.63 883.215,1034.63 875.5,1034C 872.415,1033.47 870.082,1031.97 868.5,1029.5C 867.741,1014.04 869.075,998.704 872.5,983.5C 873.507,979.312 875.007,975.312 877,971.5C 878.897,969.984 881.064,969.317 883.5,969.5C 887.949,972.227 892.616,974.727 897.5,977C 900.5,977.667 903.5,977.667 906.5,977C 909.032,972.926 912.032,969.26 915.5,966C 918.726,964.801 922.059,964.301 925.5,964.5 Z"/></g>
<g><path style="opacity:1" fill="#dcd3ce" d="M 1420.5,954.5 C 1422.39,954.297 1423.89,954.963 1425,956.5C 1426.3,959.295 1427.8,961.961 1429.5,964.5C 1428.44,966.766 1428.94,968.766 1431,970.5C 1432.48,974.844 1430.98,977.178 1426.5,977.5C 1426.21,973.563 1426.54,969.73 1427.5,966C 1425.02,962.194 1422.69,958.361 1420.5,954.5 Z"/></g>
<g><path style="opacity:1" fill="#d5ccc9" d="M 1541.5,967.5 C 1548.74,966.481 1555.41,967.815 1561.5,971.5C 1564.88,974.876 1567.88,978.543 1570.5,982.5C 1569.65,984.283 1568.32,984.783 1566.5,984C 1561.61,973.22 1553.28,968.72 1541.5,970.5C 1541.5,969.5 1541.5,968.5 1541.5,967.5 Z"/></g>
<g><path style="opacity:1" fill="#4b4b60" d="M 1057.5,965.5 C 1059.94,965.354 1060.61,966.187 1059.5,968C 1056.05,970.393 1052.38,972.226 1048.5,973.5C 1049.19,978.494 1047.19,981.494 1042.5,982.5C 1043.09,979.309 1044.26,976.309 1046,973.5C 1049.84,970.68 1053.67,968.013 1057.5,965.5 Z"/></g>
<g><path style="opacity:1" fill="#dbd2ce" d="M 1394.5,964.5 C 1395.46,964.953 1396.29,965.619 1397,966.5C 1399.69,970.544 1401.69,974.544 1403,978.5C 1404.11,981.955 1402.94,983.955 1399.5,984.5C 1399.72,981.61 1399.06,978.943 1397.5,976.5C 1397.83,975.833 1398.17,975.167 1398.5,974.5C 1396.83,971.833 1395.17,969.167 1393.5,966.5C 1393.86,965.817 1394.2,965.15 1394.5,964.5 Z"/></g>
<g><path style="opacity:1" fill="#3e4058" d="M 475.5,975.5 C 475.5,977.167 475.5,978.833 475.5,980.5C 441.491,981.342 407.491,981.676 373.5,981.5C 364.967,981.047 356.467,980.381 348,979.5C 329.002,980.533 309.835,980.533 290.5,979.5C 290.977,978.522 291.643,977.689 292.5,977C 312.951,976.997 333.451,976.831 354,976.5C 356.261,976.439 358.261,977.106 360,978.5C 364.703,977.597 369.369,977.93 374,979.5C 378.204,977.753 382.704,976.753 387.5,976.5C 399.107,977.122 410.44,978.122 421.5,979.5C 424.167,978.833 426.833,978.167 429.5,977.5C 432.201,978.869 434.701,978.536 437,976.5C 444.136,977.183 451.303,977.85 458.5,978.5C 459.328,977.585 460.328,976.919 461.5,976.5C 466.231,977.301 470.898,976.968 475.5,975.5 Z"/></g>
<g><path style="opacity:1" fill="#46465b" d="M 1072.5,973.5 C 1073.98,973.238 1075.31,973.571 1076.5,974.5C 1073.17,976.513 1070.17,979.013 1067.5,982C 1066.55,982.483 1065.55,982.649 1064.5,982.5C 1064.86,987.168 1062.86,989.835 1058.5,990.5C 1058.76,987.984 1059.59,985.65 1061,983.5C 1064.71,979.958 1068.54,976.624 1072.5,973.5 Z"/></g>
<g><path style="opacity:1" fill="#4d4c61" d="M 948.5,980.5 C 952.44,979.766 953.773,981.099 952.5,984.5C 946.872,985.259 941.372,986.593 936,988.5C 935.333,987.833 934.667,987.167 934,986.5C 932.217,989.618 930.05,992.451 927.5,995C 925.726,996.756 924.059,996.756 922.5,995C 929.38,986.732 938.046,981.899 948.5,980.5 Z"/></g>
<g><path style="opacity:1" fill="#dad1cc" d="M 1528.5,977.5 C 1540.16,976.56 1549.16,981.06 1555.5,991C 1554.67,991.833 1553.83,992.667 1553,993.5C 1546.19,983.566 1536.69,979.566 1524.5,981.5C 1524.49,978.858 1525.82,977.525 1528.5,977.5 Z"/></g>
<g><path style="opacity:0.959" fill="#888aa4" d="M 1618.5,994.5 C 1620.64,998.644 1621.97,1003.14 1622.5,1008C 1622.39,1009.9 1621.72,1011.56 1620.5,1013C 1599.4,1029.41 1576.74,1043.41 1552.5,1055C 1531.26,1058.67 1509.93,1059.34 1488.5,1057C 1487.58,1056.63 1486.75,1056.13 1486,1055.5C 1485.22,1048.63 1486.05,1041.96 1488.5,1035.5C 1489.43,1036.57 1489.77,1037.9 1489.5,1039.5C 1503.98,1040.42 1518.48,1041.08 1533,1041.5C 1539.89,1041.56 1546.72,1041.06 1553.5,1040C 1568.67,1030.58 1583.67,1020.92 1598.5,1011C 1605.79,1006.2 1612.46,1000.7 1618.5,994.5 Z"/></g>
<g><path style="opacity:0.972" fill="#8789a3" d="M 1487.5,997.5 C 1488.66,1000.27 1489.32,1003.27 1489.5,1006.5C 1489.77,1011.26 1489.44,1015.93 1488.5,1020.5C 1452.76,1022.28 1417.1,1025.12 1381.5,1029C 1370.83,1029.67 1360.17,1029.67 1349.5,1029C 1347.11,1026.69 1346.11,1023.86 1346.5,1020.5C 1346.85,1016.1 1347.51,1011.76 1348.5,1007.5C 1349.16,1009.37 1349.83,1011.37 1350.5,1013.5C 1396.07,1008.31 1441.74,1003.98 1487.5,1000.5C 1487.5,999.5 1487.5,998.5 1487.5,997.5 Z"/></g>
<g><path style="opacity:1" fill="#46465c" d="M 958.5,999.5 C 960.591,999.318 962.591,999.652 964.5,1000.5C 965.386,1001.32 965.719,1002.32 965.5,1003.5C 961.123,1003.58 956.79,1004.08 952.5,1005C 948.833,1007.17 945.167,1009.33 941.5,1011.5C 941.167,1011 940.833,1010.5 940.5,1010C 941.272,1008.78 942.272,1007.78 943.5,1007C 948.446,1004.08 953.446,1001.58 958.5,999.5 Z"/></g>
<g><path style="opacity:0.94" fill="#746990" d="M 989.5,1010.5 C 993.488,1013.99 998.155,1016.16 1003.5,1017C 1015.17,1017.33 1026.83,1017.67 1038.5,1018C 1057.12,1020.13 1075.78,1021.63 1094.5,1022.5C 1100.56,1022.57 1106.56,1022.07 1112.5,1021C 1115.41,1018.02 1117.41,1014.52 1118.5,1010.5C 1122.56,1019.02 1120.56,1025.85 1112.5,1031C 1081.86,1029.78 1051.19,1028.78 1020.5,1028C 1012.75,1027.26 1005.08,1026.1 997.5,1024.5C 994.547,1023.21 992.214,1021.21 990.5,1018.5C 990.425,1015.79 990.092,1013.13 989.5,1010.5 Z"/></g>
<g><path style="opacity:0.959" fill="#73688f" d="M 868.5,1029.5 C 870.082,1031.97 872.415,1033.47 875.5,1034C 883.215,1034.63 890.882,1035.63 898.5,1037C 921.334,1048.72 945.334,1057.06 970.5,1062C 978.564,1062.86 986.564,1062.53 994.5,1061C 1002.89,1058.44 1008.89,1053.27 1012.5,1045.5C 1013.09,1050.7 1013.76,1055.87 1014.5,1061C 1013.9,1063.47 1012.56,1065.47 1010.5,1067C 997.236,1075.1 982.903,1077.77 967.5,1075C 955.873,1073.59 944.54,1070.93 933.5,1067C 926.414,1062.79 919.081,1059.12 911.5,1056C 897.253,1052.87 882.92,1050.2 868.5,1048C 863.298,1044.69 862.131,1040.19 865,1034.5C 865.697,1032.42 866.864,1030.75 868.5,1029.5 Z"/></g>
</svg>
