<?xml version="1.0" encoding="UTF-8"?>
<!DOCTYPE svg PUBLIC "-//W3C//DTD SVG 1.1//EN" "http://www.w3.org/Graphics/SVG/1.1/DTD/svg11.dtd">
<svg xmlns="http://www.w3.org/2000/svg" version="1.1" width="415px" height="415px" style="shape-rendering:geometricPrecision; text-rendering:geometricPrecision; image-rendering:optimizeQuality; fill-rule:evenodd; clip-rule:evenodd" xmlns:xlink="http://www.w3.org/1999/xlink">
<g><path style="opacity:1" fill="#e8e8e8" d="M -0.5,-0.5 C 137.833,-0.5 276.167,-0.5 414.5,-0.5C 414.5,137.833 414.5,276.167 414.5,414.5C 406.5,414.5 398.5,414.5 390.5,414.5C 384.296,373.677 367.463,338.01 340,307.5C 327.265,295.214 312.765,285.547 296.5,278.5C 273.186,295.384 247.186,305.384 218.5,308.5C 205.764,308.817 193.098,308.151 180.5,306.5C 167.519,304.504 155.186,300.504 143.5,294.5C 143.027,293.094 142.027,292.427 140.5,292.5C 132.004,288.498 124.171,283.498 117,277.5C 98.2169,285.28 81.8835,296.613 68,311.5C 48.696,333.664 35.196,358.998 27.5,387.5C 26.0762,389.515 25.4095,391.848 25.5,394.5C 24.0762,396.515 23.4095,398.848 23.5,401.5C 22.8005,405.798 22.4672,410.131 22.5,414.5C 14.8333,414.5 7.16667,414.5 -0.5,414.5C -0.5,276.167 -0.5,137.833 -0.5,-0.5 Z"/></g>
<g><path style="opacity:1" fill="#727272" d="M 193.5,57.5 C 240.07,54.7009 275.903,72.7009 301,111.5C 317.136,143.031 318.803,175.364 306,208.5C 288.247,246.485 258.414,267.985 216.5,273C 171.056,275.199 136.556,257.032 113,218.5C 95.777,184.481 95.1103,150.148 111,115.5C 129.56,83.4389 157.06,64.1056 193.5,57.5 Z"/></g>
<g><path style="opacity:1" fill="#727272" d="M 140.5,292.5 C 140.973,293.906 141.973,294.573 143.5,294.5C 155.186,300.504 167.519,304.504 180.5,306.5C 183.942,307.748 187.608,308.581 191.5,309C 200.676,309.824 209.676,309.657 218.5,308.5C 247.186,305.384 273.186,295.384 296.5,278.5C 312.765,285.547 327.265,295.214 340,307.5C 367.463,338.01 384.296,373.677 390.5,414.5C 267.833,414.5 145.167,414.5 22.5,414.5C 22.4672,410.131 22.8005,405.798 23.5,401.5C 24.9238,399.485 25.5905,397.152 25.5,394.5C 26.9238,392.485 27.5905,390.152 27.5,387.5C 35.196,358.998 48.696,333.664 68,311.5C 81.8835,296.613 98.2169,285.28 117,277.5C 124.171,283.498 132.004,288.498 140.5,292.5 Z"/></g>
<g><path style="opacity:1" fill="#aaaaaa" d="M 140.5,292.5 C 142.027,292.427 143.027,293.094 143.5,294.5C 141.973,294.573 140.973,293.906 140.5,292.5 Z"/></g>
<g><path style="opacity:1" fill="#a9a9a9" d="M 180.5,306.5 C 193.098,308.151 205.764,308.817 218.5,308.5C 209.676,309.657 200.676,309.824 191.5,309C 187.608,308.581 183.942,307.748 180.5,306.5 Z"/></g>
<g><path style="opacity:1" fill="#9b9b9b" d="M 27.5,387.5 C 27.5905,390.152 26.9238,392.485 25.5,394.5C 25.4095,391.848 26.0762,389.515 27.5,387.5 Z"/></g>
<g><path style="opacity:1" fill="#b3b3b3" d="M 25.5,394.5 C 25.5905,397.152 24.9238,399.485 23.5,401.5C 23.4095,398.848 24.0762,396.515 25.5,394.5 Z"/></g>
</svg>
