<?xml version="1.0" encoding="UTF-8"?>
<!DOCTYPE svg PUBLIC "-//W3C//DTD SVG 1.1//EN" "http://www.w3.org/Graphics/SVG/1.1/DTD/svg11.dtd">
<svg xmlns="http://www.w3.org/2000/svg" version="1.1" width="500px" height="500px" style="shape-rendering:geometricPrecision; text-rendering:geometricPrecision; image-rendering:optimizeQuality; fill-rule:evenodd; clip-rule:evenodd" xmlns:xlink="http://www.w3.org/1999/xlink">
<g><path style="opacity:0.871" fill="#5d5571" d="M 204.5,67.5 C 204.169,93.672 204.502,119.672 205.5,145.5C 245.132,184.632 284.632,223.965 324,263.5C 324.5,304.499 324.667,345.499 324.5,386.5C 323.432,387.434 322.099,387.768 320.5,387.5C 319.814,375.598 319.148,363.598 318.5,351.5C 318.667,322.165 318.5,292.831 318,263.5C 278.667,224.167 239.333,184.833 200,145.5C 199.5,119.502 199.333,93.5021 199.5,67.5C 201.167,67.5 202.833,67.5 204.5,67.5 Z"/></g>
<g><path style="opacity:0.992" fill="#b8b3c6" d="M 436.5,67.5 C 438.5,67.5 440.5,67.5 442.5,67.5C 442.5,159.167 442.5,250.833 442.5,342.5C 441.833,365.167 441.167,387.833 440.5,410.5C 435.159,394.838 424.159,386.838 407.5,386.5C 404.753,373.914 397.419,365.081 385.5,360C 365.408,353.585 349.575,359.085 338,376.5C 335.924,379.893 334.758,383.56 334.5,387.5C 331.214,386.793 327.881,386.46 324.5,386.5C 324.667,345.499 324.5,304.499 324,263.5C 284.632,223.965 245.132,184.632 205.5,145.5C 205.5,119.833 205.5,94.1667 205.5,68.5C 282.668,68.8326 359.668,68.4993 436.5,67.5 Z M 238.5,109.5 C 260.5,109.5 282.5,109.5 304.5,109.5C 304.5,130.5 304.5,151.5 304.5,172.5C 282.5,172.5 260.5,172.5 238.5,172.5C 238.5,151.5 238.5,130.5 238.5,109.5 Z M 403.5,109.5 C 403.5,130.5 403.5,151.5 403.5,172.5C 381.5,172.5 359.5,172.5 337.5,172.5C 337.5,151.5 337.5,130.5 337.5,109.5C 359.5,109.5 381.5,109.5 403.5,109.5 Z M 403.5,283.5 C 403.5,298.833 403.5,314.167 403.5,329.5C 393.421,330.206 384.421,333.706 376.5,340C 373.882,342.106 371.882,344.606 370.5,347.5C 359.5,347.5 348.5,347.5 337.5,347.5C 337.5,326.167 337.5,304.833 337.5,283.5C 359.5,283.5 381.5,283.5 403.5,283.5 Z"/></g>
<g><path style="opacity:1" fill="#837c95" d="M 204.5,67.5 C 281.833,67.5 359.167,67.5 436.5,67.5C 359.668,68.4993 282.668,68.8326 205.5,68.5C 205.5,94.1667 205.5,119.833 205.5,145.5C 204.502,119.672 204.169,93.672 204.5,67.5 Z"/></g>
<g><path style="opacity:0.879" fill="#5b546f" d="M 304.5,109.5 C 306.167,109.5 307.833,109.5 309.5,109.5C 309.5,130.5 309.5,151.5 309.5,172.5C 307.833,172.5 306.167,172.5 304.5,172.5C 304.5,151.5 304.5,130.5 304.5,109.5 Z"/></g>
<g><path style="opacity:1" fill="#878199" d="M 238.5,109.5 C 262.328,108.502 286.328,108.169 310.5,108.5C 310.5,130.167 310.5,151.833 310.5,173.5C 286.328,173.831 262.328,173.498 238.5,172.5C 260.5,172.5 282.5,172.5 304.5,172.5C 306.167,172.5 307.833,172.5 309.5,172.5C 309.5,151.5 309.5,130.5 309.5,109.5C 307.833,109.5 306.167,109.5 304.5,109.5C 282.5,109.5 260.5,109.5 238.5,109.5 Z"/></g>
<g><path style="opacity:1" fill="#5c5470" d="M 403.5,109.5 C 405.167,109.5 406.833,109.5 408.5,109.5C 408.5,130.833 408.5,152.167 408.5,173.5C 406.585,173.784 404.919,173.451 403.5,172.5C 403.5,151.5 403.5,130.5 403.5,109.5 Z"/></g>
<g><path style="opacity:0.897" fill="#5d5571" d="M 186.5,175.5 C 153.585,209.916 120.085,243.916 86,277.5C 85.5,315.165 85.3333,352.832 85.5,390.5C 84.193,393.725 83.193,397.059 82.5,400.5C 81.8333,381.167 81.1667,361.833 80.5,342.5C 80.3334,320.497 80.5,298.497 81,276.5C 115.333,242.167 149.667,207.833 184,173.5C 184.708,174.381 185.542,175.047 186.5,175.5 Z"/></g>
<g><path style="opacity:0.996" fill="#b8b3c6" d="M 293.5,342.5 C 292.833,351.5 292.167,360.5 291.5,369.5C 285.273,368.253 278.94,367.586 272.5,367.5C 270.17,350.188 261.503,337.188 246.5,328.5C 247.434,327.432 247.768,326.099 247.5,324.5C 245.833,324.5 244.167,324.5 242.5,324.5C 235.656,323.999 228.822,323.332 222,322.5C 217.404,322.609 212.904,323.275 208.5,324.5C 182.5,324.5 156.5,324.5 130.5,324.5C 131.15,339.206 130.483,353.539 128.5,367.5C 109.424,366.535 95.0906,374.202 85.5,390.5C 85.3333,352.832 85.5,315.165 86,277.5C 120.085,243.916 153.585,209.916 186.5,175.5C 187.601,174.2 188.934,173.7 190.5,174C 224.305,208.806 258.472,243.306 293,277.5C 293.5,299.164 293.667,320.831 293.5,342.5 Z"/></g>
<g><path style="opacity:1" fill="#5b546f" d="M 403.5,283.5 C 405.167,283.5 406.833,283.5 408.5,283.5C 408.5,304.833 408.5,326.167 408.5,347.5C 406.833,347.5 405.167,347.5 403.5,347.5C 403.5,341.5 403.5,335.5 403.5,329.5C 403.5,314.167 403.5,298.833 403.5,283.5 Z"/></g>
<g><path style="opacity:1" fill="#f9f9f9" d="M 242.5,324.5 C 242.894,326.71 244.227,328.043 246.5,328.5C 261.503,337.188 270.17,350.188 272.5,367.5C 278.94,367.586 285.273,368.253 291.5,369.5C 301.571,373.561 309.571,380.228 315.5,389.5C 317.336,388.972 319.003,388.306 320.5,387.5C 322.099,387.768 323.432,387.434 324.5,386.5C 327.881,386.46 331.214,386.793 334.5,387.5C 334.758,383.56 335.924,379.893 338,376.5C 349.575,359.085 365.408,353.585 385.5,360C 397.419,365.081 404.753,373.914 407.5,386.5C 424.159,386.838 435.159,394.838 440.5,410.5C 442.646,430.723 433.98,443.556 414.5,449C 299.833,449.667 185.167,449.667 70.5,449C 60.0209,444.619 56.1876,436.786 59,425.5C 63.9286,416.071 71.4286,413.071 81.5,416.5C 82.4933,411.88 82.8266,407.214 82.5,402.5C 82.5,401.833 82.5,401.167 82.5,400.5C 83.193,397.059 84.193,393.725 85.5,390.5C 95.0906,374.202 109.424,366.535 128.5,367.5C 129.919,368.451 131.585,368.784 133.5,368.5C 142.485,345.769 158.985,337.102 183,342.5C 190.06,334.244 198.56,328.244 208.5,324.5C 212.904,323.275 217.404,322.609 222,322.5C 228.822,323.332 235.656,323.999 242.5,324.5 Z"/></g>
<g><path style="opacity:1" fill="#ebeaea" d="M 208.5,324.5 C 198.56,328.244 190.06,334.244 183,342.5C 158.985,337.102 142.485,345.769 133.5,368.5C 131.585,368.784 129.919,368.451 128.5,367.5C 130.483,353.539 131.15,339.206 130.5,324.5C 156.5,324.5 182.5,324.5 208.5,324.5 Z"/></g>
<g><path style="opacity:1" fill="#605873" d="M 242.5,324.5 C 244.167,324.5 245.833,324.5 247.5,324.5C 247.768,326.099 247.434,327.432 246.5,328.5C 244.227,328.043 242.894,326.71 242.5,324.5 Z"/></g>
<g><path style="opacity:0.95" fill="#ebebea" d="M 403.5,329.5 C 403.5,335.5 403.5,341.5 403.5,347.5C 392.5,347.5 381.5,347.5 370.5,347.5C 371.882,344.606 373.882,342.106 376.5,340C 384.421,333.706 393.421,330.206 403.5,329.5 Z"/></g>
<g><path style="opacity:0.948" fill="#ebeaea" d="M 80.5,342.5 C 80.3334,365.169 80.5,387.836 81,410.5C 81.1829,407.635 81.6829,404.969 82.5,402.5C 82.8266,407.214 82.4933,411.88 81.5,416.5C 71.4286,413.071 63.9286,416.071 59,425.5C 56.1876,436.786 60.0209,444.619 70.5,449C 185.167,449.667 299.833,449.667 414.5,449C 433.98,443.556 442.646,430.723 440.5,410.5C 441.167,387.833 441.833,365.167 442.5,342.5C 449.997,349.153 454.664,357.486 456.5,367.5C 478.885,368.175 493.218,379.175 499.5,400.5C 499.5,406.167 499.5,411.833 499.5,417.5C 493.931,435.896 481.597,446.729 462.5,450C 314.833,450.667 167.167,450.667 19.5,450C 9.61696,448.275 2.95029,442.775 -0.5,433.5C -0.5,429.167 -0.5,424.833 -0.5,420.5C 5.10155,407.032 15.1016,402.032 29.5,405.5C 27.8299,377.984 39.1632,358.151 63.5,346C 68.949,343.721 74.6157,342.554 80.5,342.5 Z"/></g>
<g><path style="opacity:0.983" fill="#ebeaea" d="M 293.5,342.5 C 302.654,343.328 310.988,346.328 318.5,351.5C 319.148,363.598 319.814,375.598 320.5,387.5C 319.003,388.306 317.336,388.972 315.5,389.5C 309.571,380.228 301.571,373.561 291.5,369.5C 292.167,360.5 292.833,351.5 293.5,342.5 Z"/></g>
<g><path style="opacity:1" fill="#928d9e" d="M 80.5,342.5 C 81.1667,361.833 81.8333,381.167 82.5,400.5C 82.5,401.167 82.5,401.833 82.5,402.5C 81.6829,404.969 81.1829,407.635 81,410.5C 80.5,387.836 80.3334,365.169 80.5,342.5 Z"/></g>
</svg>
